  <svg viewBox="0 0 304.19 136.59" xmlns="http://www.w3.org/2000/svg">
                  <path d="M306,90.65h0a.22.22,0,0,1,.09.07c.3.36.06,2.55-.73,6.52a1.58,1.58,0,0,1-.94,1c0,.06,0,.13,0,.19l.32.15c.07.05.33.24.21.8,0,.09-.05.26-.09.49a31.5,31.5,0,0,1-1.09,4.78,4.05,4.05,0,0,1-1.4,2l-.09.17a19.09,19.09,0,0,1-1.91,1.95c-.4.93-.78,1.77-1.11,2.48a30.54,30.54,0,0,1-7.32,10c-3.07,2.67-8.77,5.18-12.18,6.69-2.63,1.16-7.8,3.13-11.21,4.43l-2.91,1.11a22.89,22.89,0,0,1-6.95,1.19c-.33.28-1.4.83-4.79,1-3.94.16-14.16.45-18.37.45s-14.42-.29-18.36-.45c-3.42-.13-4.48-.69-4.79-1l-2.9-.06a8.93,8.93,0,0,1-4.58-1.23l-.14-.08c-.63-.35-2.33-1.16-4.07-2l-2-.05-5.09-.1c-2.5,0-4.6-.14-5.61-.26a13.31,13.31,0,0,1-3.41-1.32c-.26-.14-.52-.26-.75-.37a10.4,10.4,0,0,0-2-.7l-2.63.05c-13.93.29-38.71.87-42.09.95l2,5.18c.89,2.06,1.13,3.34.75,3.92a.68.68,0,0,1-.57.32h0c-.5,0-1,.05-1.45.05a12.38,12.38,0,0,1-6.74-1.78h0c-2.55-1.56-5.72-5.15-7.56-7.37l-10.82.21c-3.2.07-5.31.11-5.89.11a14.66,14.66,0,0,0-5.77.95,30.76,30.76,0,0,1-9.33,1.63c-3,.13-9.28.28-15.32.41l-6,.14c-1.82.05-3.62.07-5.4.07-3.82,0-7.58-.1-11.36-.3-.05,0-5.42-.12-8.4-.47,0,0-3.43-.48-5.94-1-.6-.12-1.27-.23-2-.34a23.48,23.48,0,0,1-7.43-2.09,19.32,19.32,0,0,1-4.62-3.2,18.23,18.23,0,0,1-2.52-1.77l-.09-.07a.64.64,0,0,1-.27-.52.62.62,0,0,1,.3-.45l.07-.06c-.43-.57-.89-1.19-1.39-1.9-3.47-4.92-9.29-13.5-11.13-17C9.6,103.06,9,102,8.47,101.11a19.64,19.64,0,0,1-2.26-4.74c-.51-2.1-1.32-7-1.63-9.56a129.79,129.79,0,0,1-.9-15.65,129.71,129.71,0,0,1,.9-15.64C4.89,53,5.7,48.06,6.21,46a19.64,19.64,0,0,1,2.26-4.74c.53-.92,1.13-1.95,1.74-3.11,2-3.76,8.14-12.77,11.13-17,.5-.71.95-1.33,1.39-1.9l-.1-.08h0a.6.6,0,0,1-.27-.43.64.64,0,0,1,.27-.52l.1-.08a18.77,18.77,0,0,1,2.51-1.76,19,19,0,0,1,4.62-3.2,23.35,23.35,0,0,1,7.42-2.09c.71-.11,1.38-.22,2-.34,2.51-.52,5.9-1,5.93-1,3-.35,8.36-.47,8.42-.47,5.53-.29,11-.37,16.75-.23l5.85.13c6.09.14,12.39.28,15.43.42A31.16,31.16,0,0,1,101,11.18a14.46,14.46,0,0,0,5.77,1c.58,0,2.71,0,5.93.11l10.78.21c1.85-2.24,5-5.82,7.56-7.37h.07a12.43,12.43,0,0,1,6.71-1.78c.47,0,1,0,1.45.05h0a.68.68,0,0,1,.57.32c.38.58.14,1.86-.75,3.92L137,12.84c3.33.08,28.25.66,42.11.95l2.91.05a10.29,10.29,0,0,0,1.79-.64l.75-.36A12.86,12.86,0,0,1,188,11.52c1-.12,3.11-.22,5.6-.26l5-.1,2,0c1.81-.85,3.59-1.7,4.24-2.06l.13-.07a8.89,8.89,0,0,1,4.55-1.23l2.83-.06c.21-.24,1.12-.9,4.87-1,4.45-.18,14.34-.45,18.36-.45s13.91.27,18.37.45c3.74.14,4.65.8,4.86,1a22.85,22.85,0,0,1,6.86,1.17c.49.2,1.53.6,2.86,1.1,3.43,1.31,8.61,3.28,11.26,4.45,3.4,1.5,9.09,4,12.15,6.68a30.26,30.26,0,0,1,7.3,10c.07.15.15.31.22.47a14.29,14.29,0,0,1,.6,1.33h0c.07.17.15.35.23.52a28.61,28.61,0,0,1,2,2l0,.05a1.22,1.22,0,0,0,.08.17,4,4,0,0,1,1.4,2,32.8,32.8,0,0,1,1.1,4.77,4.68,4.68,0,0,0,.08.47c.12.57-.14.76-.19.79l-.34.17,0,.19a1.57,1.57,0,0,1,.94,1c.79,4,1,6.15.73,6.51a.18.18,0,0,1-.09.06h0l-.37.19c.08.75.14,1.47.17,2.13h0l.09.8C306.86,65.27,306.94,68,307,71a.26.26,0,0,1,.07.17c0,3.06-.07,5.69-1.06,16.36-.07.72-.15,1.44-.24,2.15,0,.25-.05.51-.08.79Z" transform="translate(-3.26 -2.87)" fill="none" stroke="#999" stroke-linecap="round" stroke-linejoin="round" stroke-width="0.85"/>
                  <path d="M233.38,112.19a5.84,5.84,0,0,1-2,.93l-3.07.61c-7.83,1.56-29.9,4.27-40.22,5.32s-27.76,1.56-36.93,1.77c-6.6.15-22.29-.39-31.5-.47" transform="translate(-3.26 -2.87)" fill="none" stroke="#999" stroke-linecap="round" stroke-linejoin="round" stroke-width="0.57"/>
                  <path d="M24.2,125.17" transform="translate(-3.26 -2.87)" fill="none" stroke="#999" stroke-linecap="round" stroke-linejoin="round" stroke-width="0.57"/>
                  <path d="M32.06,129.16" transform="translate(-3.26 -2.87)" fill="none" stroke="#999" stroke-linecap="round" stroke-linejoin="round" stroke-width="0.57"/>
                  <path d="M123.52,129.58c-8.91.17-15.68.33-16.78.33a14.93,14.93,0,0,0-5.88,1,31.26,31.26,0,0,1-9.24,1.61c-4,.17-13.68.37-21.27.55S57,133,53.61,132.81c0,0-5.37-.12-8.38-.47,0,0-3.38-.48-5.92-1s-6.26-.75-9.32-2.4-4.89-2.87-8.42-7.88-9.27-13.49-11.11-17-3.48-5.73-4-7.78-1.3-6.93-1.62-9.54A129.44,129.44,0,0,1,4,71.16" transform="translate(-3.26 -2.87)" fill="none" stroke="#999" stroke-linecap="round" stroke-linejoin="round" stroke-width="0.57"/>
                  <path d="M14,96.4l.12.07a3.34,3.34,0,0,0,.6.29c1.75.66,41.32,14.16,80,20.3,0,0,6.23.83,11.29,1" transform="translate(-3.26 -2.87)" fill="none" stroke="#999" stroke-linecap="round" stroke-linejoin="round" stroke-width="0.57"/>
                  <path d="M10.23,71.16c0,15,2.68,23.2,2.68,23.2s.52,1.75,1.09,2" transform="translate(-3.26 -2.87)" fill="none" stroke="#999" stroke-linecap="round" stroke-linejoin="round" stroke-width="0.57"/>
                  <path d="M51.66,132.71c-.74-.07-3.66-1-3.66-1-4-1.43-10.16-3.77-14.35-5.47-3.86-1.56-7.18-5.48-11.06-11.77-3.63-5.87-8.45-17.25-8.45-17.25s-.27-.74-.32-1" transform="translate(-3.26 -2.87)" fill="none" stroke="#999" stroke-linecap="round" stroke-linejoin="round" stroke-width="0.43"/>
                  <path d="M283,117.52" transform="translate(-3.26 -2.87)" fill="none" stroke="#999" stroke-linecap="round" stroke-linejoin="round" stroke-width="0.43"/>
                  <path d="M295.56,101.22" transform="translate(-3.26 -2.87)" fill="none" stroke="#999" stroke-linecap="round" stroke-linejoin="round" stroke-width="0.43"/>
                  <path d="M297.54,102" transform="translate(-3.26 -2.87)" fill="none" stroke="#999" stroke-linecap="round" stroke-linejoin="round" stroke-width="0.28"/>
                  <path d="M266.11,125.21a14.44,14.44,0,0,0,4.74-.53c3.25-1,10.73-3.34,16.63-7.94a27.62,27.62,0,0,0,9.76-13.1" transform="translate(-3.26 -2.87)" fill="none" stroke="#999" stroke-linecap="round" stroke-linejoin="round" stroke-width="0.57"/>
                  <path d="M145.72,114.55" transform="translate(-3.26 -2.87)" fill="none" stroke="#999" stroke-linecap="round" stroke-linejoin="round" stroke-width="0.43"/>
                  <path d="M114.85,121.09c-6.71-1.24-27.57-7.85-29.34-49.82" transform="translate(-3.26 -2.87)" fill="none" stroke="#999" stroke-linecap="round" stroke-linejoin="round" stroke-width="0.57"/>
                  <path d="M116.13,121.05" transform="translate(-3.26 -2.87)" fill="none" stroke="#999" stroke-linecap="round" stroke-linejoin="round" stroke-width="0.57"/>
                  <path d="M116.93,121.09c-.28,0-1.83,0-2.08,0" transform="translate(-3.26 -2.87)" fill="none" stroke="#999" stroke-linecap="round" stroke-linejoin="round" stroke-width="0.57"/>
                  <path d="M234.51,112.86c0,.76-2.17,1.48-2.17,1.48-1,.21-2.24.54-3.26.74-7.83,1.56-29.78,4-40.1,5s-27.76,1.56-36.93,1.77c-7.68.18-26.45-.32-35.12-.8" transform="translate(-3.26 -2.87)" fill="none" stroke="#999" stroke-linecap="round" stroke-linejoin="round" stroke-width="0.28"/>
                  <path d="M116.93,121.07l24.8-6.51s9.2-2.51,13.11-3.17,13.11-1.1,18.81-1.25c16.43-.43,55.93,1.29,58.37,1.51s2.49,1.25,2.49,1.25" transform="translate(-3.26 -2.87)" fill="none" stroke="#999" stroke-linecap="round" stroke-linejoin="round" stroke-width="0.57"/>
                  <path d="M51.53,122.12c10.27.54,34.68,1.72,57.16,1.87" transform="translate(-3.26 -2.87)" fill="none" stroke="#999" stroke-linecap="round" stroke-linejoin="round" stroke-width="0.28"/>
                  <path d="M12.68,87.33s35.51,3.39,75.44,6.23" transform="translate(-3.26 -2.87)" fill="none" stroke="#999" stroke-linecap="round" stroke-linejoin="round" stroke-width="0.28"/>
                  <path d="M128.08,71.27A2.69,2.69,0,0,0,130.79,74l.26.21v3.5a2.57,2.57,0,0,0,1.76,2.72c.74.22,5.84,1.37,5.84,1.37.17,10.87,2,25.25,2.1,25.83s-.23.69-.23.69-26.75,6-28.15,6.27a2,2,0,0,1-2-.4A71.29,71.29,0,0,1,95.93,71.27" transform="translate(-3.26 -2.87)" fill="none" stroke="#999" stroke-linecap="round" stroke-linejoin="round" stroke-width="0.28"/>
                  <path d="M217.82,81.05" transform="translate(-3.26 -2.87)" fill="none" stroke="#999" stroke-linecap="round" stroke-linejoin="round" stroke-width="0.43"/>
                  <path d="M214.77,80.05" transform="translate(-3.26 -2.87)" fill="none" stroke="#999" stroke-linecap="round" stroke-linejoin="round" stroke-width="0.43"/>
                  <path d="M214.25,79.73" transform="translate(-3.26 -2.87)" fill="none" stroke="#999" stroke-linecap="round" stroke-linejoin="round" stroke-width="0.43"/>
                  <path d="M216.73,80.48" transform="translate(-3.26 -2.87)" fill="none" stroke="#999" stroke-linecap="round" stroke-linejoin="round" stroke-width="0.43"/>
                  <path d="M18.31,71.16a5.21,5.21,0,0,1-.24,1.8h-2s-1.72-.33-1.72-1.8" transform="translate(-3.26 -2.87)" fill="none" stroke="#999" stroke-linecap="round" stroke-linejoin="round" stroke-width="0.43"/>
                  <path d="M260.51,103.59c.68-2.23,3.58-12.94,3.58-32.19" transform="translate(-3.26 -2.87)" fill="none" stroke="#999" stroke-linecap="round" stroke-linejoin="round" stroke-width="0.43"/>
                  <path d="M187.46,119s.61-.76,5.55-8.78" transform="translate(-3.26 -2.87)" fill="none" stroke="#999" stroke-linecap="round" stroke-linejoin="round" stroke-width="0.57"/>
                  <path d="M216.63,71.29v27c0,4.87,5,4.42,5,4.42l32.92-2s3.88-.18,4.89-8.92a183.48,183.48,0,0,0,1-20.6" transform="translate(-3.26 -2.87)" fill="none" stroke="#999" stroke-linecap="round" stroke-linejoin="round" stroke-width="0.28"/>
                  <path d="M209.32,100.09" transform="translate(-3.26 -2.87)" fill="none" stroke="#999" stroke-linecap="round" stroke-linejoin="round" stroke-width="0.43"/>
                  <path d="M215.1,79.9" transform="translate(-3.26 -2.87)" fill="none" stroke="#999" stroke-linecap="round" stroke-linejoin="round" stroke-width="0.43"/>
                  <path d="M130.91,125.9a2.54,2.54,0,0,0-2.41-1.65h-4a2.5,2.5,0,0,0-2.55,2.45,2.31,2.31,0,0,0,.28,1.11s5.24,6.91,9,9.18" transform="translate(-3.26 -2.87)" fill="none" stroke="#999" stroke-linecap="round" stroke-linejoin="round" stroke-width="0.57"/>
                  <path d="M136.47,128.81c-1.11-2.61-1.85-2.7-1.85-2.7l-9.73-.59a1.77,1.77,0,0,0-1.8,1.73,1.39,1.39,0,0,0,0,.35,17.72,17.72,0,0,0,4,5.86c3.12,3.29,6.08,5.69,12.15,5.23,0,0,1.36.25-.4-3.84Z" transform="translate(-3.26 -2.87)" fill="none" stroke="#999" stroke-linecap="round" stroke-linejoin="round" stroke-width="0.57"/>
                  <path d="M218.32,105.83c2.16,0,57.15-2.72,57.15-2.72a9.43,9.43,0,0,0,3.4-.71c1.51-.71,2.31-1.7,2.85-3.82.06-.22.14-.54.23-.94a113.85,113.85,0,0,0,2.76-26.45" transform="translate(-3.26 -2.87)" fill="none" stroke="#999" stroke-linecap="round" stroke-linejoin="round" stroke-width="0.57"/>
                  <path d="M213.81,71.26V101.7c0,4.6,4.51,4.13,4.51,4.13" transform="translate(-3.26 -2.87)" fill="none" stroke="#999" stroke-linecap="round" stroke-linejoin="round" stroke-width="0.43"/>
                  <path d="M144.81,106.51s37.77-2.36,68.66-4.46" transform="translate(-3.26 -2.87)" fill="none" stroke="#999" stroke-linecap="round" stroke-linejoin="round" stroke-width="0.28"/>
                  <path d="M213.81,71.26V101.7c0,4.6,4.51,4.13,4.51,4.13" transform="translate(-3.26 -2.87)" fill="none" stroke="#999" stroke-linecap="round" stroke-linejoin="round" stroke-width="0.57"/>
                  <path d="M111.27,119.39s29.49-8.49,30.94-8.83,2.72-1.1,1.85-5.53c-.92-4.64-3.34-10.37-3.34-33.73" transform="translate(-3.26 -2.87)" fill="none" stroke="#999" stroke-linecap="round" stroke-linejoin="round" stroke-width="0.57"/>
                  <path d="M94.86,88.39c.75,2.87,2.51,9.42,3.26,12l.65-.14c-4-13.87-8.7-35.23-8.7-35.23l-.65.15s2,8.74,4.07,17.38" transform="translate(-3.26 -2.87)" fill="none" stroke="#999" stroke-linecap="round" stroke-linejoin="round" stroke-width="0.43"/>
                  <path d="M93.83,86s1.16,5.87,1.4,7.8c0,0,.25,2.22.55,4.94s.56,5.14.56,5.14.13,4.46.11,5.23" transform="translate(-3.26 -2.87)" fill="none" stroke="#999" stroke-linecap="round" stroke-linejoin="round" stroke-width="0.43"/>
                  <path d="M98,108.65" transform="translate(-3.26 -2.87)" fill="none" stroke="#999" stroke-linecap="round" stroke-linejoin="round" stroke-width="0.43"/>
                  <path d="M96.39,97.86s1.87,8.3,2,8.92a1.29,1.29,0,0,1-.11.73,3.88,3.88,0,0,0-.3,1.72,21.52,21.52,0,0,0,.3,2.17" transform="translate(-3.26 -2.87)" fill="none" stroke="#999" stroke-linecap="round" stroke-linejoin="round" stroke-width="0.43"/>
                  <path d="M94,82.53l-.69.15-.28.34s.42,2.23.51,2.55a1.06,1.06,0,0,0,.32.43,5.24,5.24,0,0,0,.52.41s1,4.53,1.73,10l1.47,10.2a2.25,2.25,0,0,0-.22,1.06,6.79,6.79,0,0,0,0,2.7" transform="translate(-3.26 -2.87)" fill="none" stroke="#999" stroke-linecap="round" stroke-linejoin="round" stroke-width="0.43"/>
                  <line x1="90.01" y1="80.15" x2="90.44" y2="80.09" fill="none" stroke="#999" stroke-linecap="round" stroke-linejoin="round" stroke-width="0.43"/>
                  <line x1="90.76" y1="79.73" x2="90.6" y2="79.94" fill="none" stroke="#999" stroke-linecap="round" stroke-linejoin="round" stroke-width="0.43"/>
                  <line x1="90.58" y1="80.3" x2="91.27" y2="83.28" fill="none" stroke="#999" stroke-linecap="round" stroke-linejoin="round" stroke-width="0.43"/>
                  <path d="M99.35,40.23,98.84,40s-.49-.28-.71.19l-.93,2-.14.9-1,2.15.29.17.13.17.83-1.79L97.9,43h.26Z" transform="translate(-3.26 -2.87)" fill="none" stroke="#999" stroke-linecap="round" stroke-linejoin="round" stroke-width="0.43"/>
                  <line x1="94.61" y1="39.78" x2="95.57" y2="37.49" fill="none" stroke="#999" stroke-linecap="round" stroke-linejoin="round" stroke-width="0.43"/>
                  <path d="M96.06,45.22S94.69,48,89.65,60c0,0-3.36,6.64-3.81,7.49" transform="translate(-3.26 -2.87)" fill="none" stroke="#999" stroke-linecap="round" stroke-linejoin="round" stroke-width="0.43"/>
                  <path d="M96.39,45.47S95,48.28,90,60.25l0,.28s-1.29,5.1-1.58,6a7.72,7.72,0,0,1-.87,2.26" transform="translate(-3.26 -2.87)" fill="none" stroke="#999" stroke-linecap="round" stroke-linejoin="round" stroke-width="0.43"/>
                  <line x1="84.37" y1="64.04" x2="86.58" y2="57.66" fill="none" stroke="#999" stroke-linecap="round" stroke-linejoin="round" stroke-width="0.43"/>
                  <path d="M97.36,43.72" transform="translate(-3.26 -2.87)" fill="none" stroke="#999" stroke-linecap="round" stroke-linejoin="round" stroke-width="0.43"/>
                  <path d="M90.17,60.41l.47.22S100.18,37.73,108,25.7" transform="translate(-3.26 -2.87)" fill="none" stroke="#999" stroke-linecap="round" stroke-linejoin="round" stroke-width="0.43"/>
                  <path d="M99.07,39.92c1.77-3.89,6.38-10.64,8.28-14.5l.63.28" transform="translate(-3.26 -2.87)" fill="none" stroke="#999" stroke-linecap="round" stroke-linejoin="round" stroke-width="0.43"/>
                  <path d="M87.64,68.24a7.07,7.07,0,0,0-.36,2.41c.07,1.22.16,2.67.26,3.09a3.17,3.17,0,0,1,0,1.4.87.87,0,0,1-1,.72.83.83,0,0,1-.73-.38" transform="translate(-3.26 -2.87)" fill="none" stroke="#999" stroke-linecap="round" stroke-linejoin="round" stroke-width="0.43"/>
                  <line x1="83.52" y1="63.96" x2="84.01" y2="64.28" fill="none" stroke="#999" stroke-linecap="round" stroke-linejoin="round" stroke-width="0.43"/>
                  <path d="M87.38,67.37s-.27.56.12.83" transform="translate(-3.26 -2.87)" fill="none" stroke="#999" stroke-linecap="round" stroke-linejoin="round" stroke-width="0.43"/>
                  <path d="M87.19,74.9a.66.66,0,1,1-1.29-.15.65.65,0,1,1,1.29.15Z" transform="translate(-3.26 -2.87)" fill="none" stroke="#999" stroke-linecap="round" stroke-linejoin="round" stroke-width="0.43"/>
                  <path d="M192.62,127.41" transform="translate(-3.26 -2.87)" fill="none" stroke="#999" stroke-linecap="round" stroke-linejoin="round" stroke-width="0.43"/>
                  <path d="M188.24,119s4.32,5,4.32,8.22c0,0,.06.63-1.15.84" transform="translate(-3.26 -2.87)" fill="none" stroke="#999" stroke-linecap="round" stroke-linejoin="round" stroke-width="0.57"/>
                  <path d="M39.31,128.52a5.08,5.08,0,0,1,2.75.32c1.6.61,10.08,3.91,10.08,3.91" transform="translate(-3.26 -2.87)" fill="none" stroke="#999" stroke-linecap="round" stroke-linejoin="round" stroke-width="0.43"/>
                  <path d="M114.85,121.09s-1.27.24-8.32,8.71" transform="translate(-3.26 -2.87)" fill="none" stroke="#999" stroke-linecap="round" stroke-linejoin="round" stroke-width="0.57"/>
                  <path d="M136.66,129.28s27.51-.64,42.48-.95c0,0,4.33-.07,6.2-.13a49.91,49.91,0,0,1,6.92,0,21.84,21.84,0,0,1,6.07,1.74c2.23,1.06,5.58,2.61,6.53,3.14a8.69,8.69,0,0,0,4.59,1.27s13.91.32,16.52.32h21.28c4.66,0,9-.18,11.37-.25a22.35,22.35,0,0,0,6.89-1.16c1.76-.71,10.43-3.92,14.11-5.54s9.14-4.07,12.1-6.65a30.27,30.27,0,0,0,7.25-9.89,73.88,73.88,0,0,0,6.71-23.68c1-10.68,1.06-13.31,1.06-16.34" transform="translate(-3.26 -2.87)" fill="none" stroke="#999" stroke-linecap="round" stroke-linejoin="round" stroke-width="0.57"/>
                  <path d="M145.72,27.78" transform="translate(-3.26 -2.87)" fill="none" stroke="#999" stroke-linecap="round" stroke-linejoin="round" stroke-width="0.43"/>
                  <path d="M99.4,15.21c0,1.71-3.31,2.9-7.16,2.67S85.52,16,85.63,14.33s3-2.25,6.88-2S99.4,13.67,99.4,15.21Z" transform="translate(-3.26 -2.87)" fill="none" stroke="#999" stroke-linecap="round" stroke-linejoin="round" stroke-width="0.28"/>
                  <path d="M45.8,122.12c-1.76,3-5.57,3.66-10.94.49-4.36-2.57-6.51-7-4.82-9.83s6.59-3.07,10.94-.49S47.45,119.25,45.8,122.12Z" transform="translate(-3.26 -2.87)" fill="none" stroke="#999" stroke-linecap="round" stroke-linejoin="round" stroke-width="0.28"/>
                  <path d="M32.31,110.93c2.46-1.16,6.28-.86,9.72,1.18,4.66,2.76,6.93,7.45,5.16,10.53-1.88,3.27-6,3.91-11.71.52a14,14,0,0,1-2.95-2.29" transform="translate(-3.26 -2.87)" fill="none" stroke="#999" stroke-linecap="round" stroke-linejoin="round" stroke-width="0.28"/>
                  <path d="M50.21,122.41c-1.81,3.94-6.59,5.33-13.86,1.88-5.91-2.79-9.16-8.33-7.5-12.05,1.39-3.09,7.6-4.17,13.5-1.36S51.91,118.71,50.21,122.41Z" transform="translate(-3.26 -2.87)" fill="none" stroke="#999" stroke-linecap="round" stroke-linejoin="round" stroke-width="0.28"/>
                  <path d="M39.11,109.71a45.26,45.26,0,0,0-4.89-1c-4.74-.69-8.83.8-9.7,3.31-1.1,3.19,1.42,7.38,5.95,10a41.52,41.52,0,0,0,9.23,4.25s5.88,1.91,8.82-1.53" transform="translate(-3.26 -2.87)" fill="none" stroke="#999" stroke-linecap="round" stroke-linejoin="round" stroke-width="0.28"/>
                  <path d="M42.83,113.86a1.55,1.55,0,0,0-.6.58c-.31.48-.38,1-.16,1.12s.66-.12,1-.59a2.19,2.19,0,0,0,.27-.66" transform="translate(-3.26 -2.87)" fill="none" stroke="#999" stroke-linecap="round" stroke-linejoin="round" stroke-width="0.28"/>
                  <path d="M42.09,121.19c.38.58.87.93,1.09.78s.09-.73-.29-1.31-.87-.93-1.1-.78S41.7,120.62,42.09,121.19Z" transform="translate(-3.26 -2.87)" fill="none" stroke="#999" stroke-linecap="round" stroke-linejoin="round" stroke-width="0.28"/>
                  <polyline points="38.97 111.57 37.45 112.17 37.36 117.61 38.69 118.28" fill="none" stroke="#999" stroke-linecap="round" stroke-linejoin="round" stroke-width="0.28"/>
                  <polyline points="39.37 112.88 40.2 113.27 40.2 116.53 39.23 116.98" fill="none" stroke="#999" stroke-linecap="round" stroke-linejoin="round" stroke-width="0.28"/>
                  <path d="M41.94,115.75a1.39,1.39,0,0,0-.37.9V119a.77.77,0,0,0,.37.64" transform="translate(-3.26 -2.87)" fill="none" stroke="#999" stroke-linecap="round" stroke-linejoin="round" stroke-width="0.28"/>
                  <line x1="38.97" y1="112.73" x2="41.14" y2="112.62" fill="none" stroke="#999" stroke-linecap="round" stroke-linejoin="round" stroke-width="0.28"/>
                  <line x1="39.72" y1="119.13" x2="42.34" y2="119.24" fill="none" stroke="#999" stroke-linecap="round" stroke-linejoin="round" stroke-width="0.28"/>
                  <path d="M43.29,119.67a6.74,6.74,0,0,0,2.73.53" transform="translate(-3.26 -2.87)" fill="none" stroke="#999" stroke-linecap="round" stroke-linejoin="round" stroke-width="0.28"/>
                  <path d="M43.64,118.79s2.15.61,2.38.72" transform="translate(-3.26 -2.87)" fill="none" stroke="#999" stroke-linecap="round" stroke-linejoin="round" stroke-width="0.28"/>
                  <path d="M43.31,122a3.68,3.68,0,0,0,1.7,1" transform="translate(-3.26 -2.87)" fill="none" stroke="#999" stroke-linecap="round" stroke-linejoin="round" stroke-width="0.28"/>
                  <path d="M41.76,121.06s-.24.36-1.58.41-5.46.26-5.46.26" transform="translate(-3.26 -2.87)" fill="none" stroke="#999" stroke-linecap="round" stroke-linejoin="round" stroke-width="0.28"/>
                  <path d="M31.69,112.35l7.15,1.23a19.61,19.61,0,0,1,3.1.76" transform="translate(-3.26 -2.87)" fill="none" stroke="#999" stroke-linecap="round" stroke-linejoin="round" stroke-width="0.28"/>
                  <path d="M31,113,39,114.73a1.4,1.4,0,0,1,1,1.39v3.55a1.2,1.2,0,0,1-1.09,1.13c-1.08.16-4.73.35-4.73.35" transform="translate(-3.26 -2.87)" fill="none" stroke="#999" stroke-linecap="round" stroke-linejoin="round" stroke-width="0.28"/>
                  <path d="M44,122.77c-1.87,1.61-4.88,1.59-8.79-.71s-5.76-6.33-4.17-9,6.08-3.08,10-.77" transform="translate(-3.26 -2.87)" fill="none" stroke="#999" stroke-linecap="round" stroke-linejoin="round" stroke-width="0.28"/>
                  <path d="M23.08,123.11l-.31.25s-.45.26,0,.63a17.4,17.4,0,0,0,2.87,2" transform="translate(-3.26 -2.87)" fill="none" stroke="#999" stroke-linecap="round" stroke-linejoin="round" stroke-width="0.43"/>
                  <path d="M282,97.64a11.32,11.32,0,0,1-.77,3.5,23.45,23.45,0,0,1-1.62,2.45,2,2,0,0,0-.57,1.85,96.58,96.58,0,0,0,1.77,9.6s.47,1.48,1.19,1.62a2.3,2.3,0,0,0,1.94-.38c.75-.47,3.48-2.16,4.33-2.9a18,18,0,0,0,3.48-4.75,49.28,49.28,0,0,0,4.73-13.25,117.46,117.46,0,0,0,2.31-24.15" transform="translate(-3.26 -2.87)" fill="none" stroke="#999" stroke-linecap="round" stroke-linejoin="round" stroke-width="0.57"/>
                  <path d="M266.19,133a24,24,0,0,1,6-3.86c3.91-1.84,10.46-4.8,13.37-6.36s11.55-6.54,14.18-13.38" transform="translate(-3.26 -2.87)" fill="none" stroke="#999" stroke-linecap="round" stroke-linejoin="round" stroke-width="0.43"/>
                  <path d="M246.41,134.67s8.68-4,12.67-6,8.58-4.06,12.18-5.87,7.35-3.64,9.24-4.77,2.07-1.27,2.07-1.27" transform="translate(-3.26 -2.87)" fill="none" stroke="#999" stroke-linecap="round" stroke-linejoin="round" stroke-width="0.43"/>
                  <path d="M263.49,126.47a25,25,0,0,0,8.72-1.25c4.06-1.49,9-3.12,13-5.9s6.25-4.49,8.05-6.71a36.22,36.22,0,0,0,4.13-6.5,11.31,11.31,0,0,0,1-2.66,1.72,1.72,0,0,0-.26-1.67c-.37-.4-.62-.62-.62-.62a1,1,0,0,0-.59-.2h-1.23" transform="translate(-3.26 -2.87)" fill="none" stroke="#999" stroke-linecap="round" stroke-linejoin="round" stroke-width="0.43"/>
                  <path d="M295.44,102.14h1.13a.7.7,0,0,1,.33.22,2.53,2.53,0,0,1,.34.65,1.56,1.56,0,0,1,0,.63" transform="translate(-3.26 -2.87)" fill="none" stroke="#999" stroke-linecap="round" stroke-linejoin="round" stroke-width="0.43"/>
                  <path d="M296.6,102.71a37.6,37.6,0,0,1-3.14,6.16c-1.95,3-2.35,3.88-6.17,6.69-3.18,2.32-4.56,3.3-7.2,4.39a20,20,0,0,1-6.56,1.69" transform="translate(-3.26 -2.87)" fill="none" stroke="#999" stroke-linecap="round" stroke-linejoin="round" stroke-width="0.28"/>
                  <path d="M263,15.53a25.13,25.13,0,0,1,8.72,1.26c4.06,1.49,9,3.11,13,5.9s6.25,4.49,8.05,6.71a36.55,36.55,0,0,1,4.13,6.49,11.49,11.49,0,0,1,1,2.67,1.71,1.71,0,0,1-.26,1.66c-.37.4-.62.63-.62.63a1,1,0,0,1-.59.2c-.36,0-1.23,0-1.23,0" transform="translate(-3.26 -2.87)" fill="none" stroke="#999" stroke-linecap="round" stroke-linejoin="round" stroke-width="0.43"/>
                  <path d="M295,39.87h1.13a.87.87,0,0,0,.34-.22,2.49,2.49,0,0,0,.33-.65,1.56,1.56,0,0,0,0-.63" transform="translate(-3.26 -2.87)" fill="none" stroke="#999" stroke-linecap="round" stroke-linejoin="round" stroke-width="0.43"/>
                  <path d="M296.13,39.29A38.27,38.27,0,0,0,293,33.14c-2-3-2.35-3.88-6.17-6.69-3.18-2.33-4.56-3.3-7.21-4.39a19.91,19.91,0,0,0-6.54-1.69" transform="translate(-3.26 -2.87)" fill="none" stroke="#999" stroke-linecap="round" stroke-linejoin="round" stroke-width="0.28"/>
                  <path d="M297.27,100.82s3.87-9.72,3.87-29.63" transform="translate(-3.26 -2.87)" fill="none" stroke="#999" stroke-linecap="round" stroke-linejoin="round" stroke-width="0.28"/>
                  <path d="M279.84,104.6a31.85,31.85,0,0,0,7.83-1.15" transform="translate(-3.26 -2.87)" fill="none" stroke="#999" stroke-linecap="round" stroke-linejoin="round" stroke-width="0.28"/>
                  <path d="M275.74,103.1l-.16,1.63s-.16,2.18-.19,2.81a11.33,11.33,0,0,0,.66,5,30.71,30.71,0,0,0,2.91,5.56l.27.57" transform="translate(-3.26 -2.87)" fill="none" stroke="#999" stroke-linecap="round" stroke-linejoin="round" stroke-width="0.57"/>
                  <path d="M276.07,104.88l2.47-.15" transform="translate(-3.26 -2.87)" fill="none" stroke="#999" stroke-linecap="round" stroke-linejoin="round" stroke-width="0.28"/>
                  <path d="M274.88,104.94c-3.48.18-7.94.38-12.31.63-6.15.36-26.93,1.18-36.95,1.48s-36.82,1.18-36.82,1.18-19.33.64-26.6,1.27a90.56,90.56,0,0,0-17.39,3c-5.54,1.51-25.39,7.36-30,8.58" transform="translate(-3.26 -2.87)" fill="none" stroke="#999" stroke-linecap="round" stroke-linejoin="round" stroke-width="0.28"/>
                  <path d="M212.47,134.42s.49.8,4.68,1,14.26.45,18.35.45" transform="translate(-3.26 -2.87)" fill="none" stroke="#999" stroke-linecap="round" stroke-linejoin="round" stroke-width="0.57"/>
                  <path d="M258.54,134.42s-.49.8-4.68,1-14.26.45-18.36.45" transform="translate(-3.26 -2.87)" fill="none" stroke="#999" stroke-linecap="round" stroke-linejoin="round" stroke-width="0.57"/>
                  <path d="M258.16,134.42" transform="translate(-3.26 -2.87)" fill="none" stroke="#999" stroke-linecap="round" stroke-linejoin="round" stroke-width="0.28"/>
                  <path d="M217.08,130.15c0-.61-.51-1.09-1.31-1.64a13.66,13.66,0,0,0-4.24-1.39,6.84,6.84,0,0,0-3.42,0,31.67,31.67,0,0,0-3.67,1.48,18,18,0,0,1-2.49.72l-.56.13s-.46.12,0,.4a12.1,12.1,0,0,0,3.74,1.64,27.62,27.62,0,0,0,5.36.67,15.28,15.28,0,0,0,4.58-.63C216.32,131.09,217.08,130.4,217.08,130.15Z" transform="translate(-3.26 -2.87)" fill="none" stroke="#999" stroke-linecap="round" stroke-linejoin="round" stroke-width="0.28"/>
                  <path d="M215.5,130.73a2.08,2.08,0,0,1-.9.5,18.25,18.25,0,0,1-7.3.66" transform="translate(-3.26 -2.87)" fill="none" stroke="#999" stroke-linecap="round" stroke-linejoin="round" stroke-width="0.28"/>
                  <path d="M208.8,127.56a8.53,8.53,0,0,1,3.19.28,11,11,0,0,1,2.7,1c.52.3,1.08.79,1.08,1.16a1,1,0,0,1-.27.72" transform="translate(-3.26 -2.87)" fill="none" stroke="#999" stroke-linecap="round" stroke-linejoin="round" stroke-width="0.57"/>
                  <path d="M201.85,129.34a14.48,14.48,0,0,0,3.79-.6,13.85,13.85,0,0,1,3.16-1.18" transform="translate(-3.26 -2.87)" fill="none" stroke="#999" stroke-linecap="round" stroke-linejoin="round" stroke-width="0.28"/>
                  <path d="M207.25,129.15a3.13,3.13,0,0,0,2.26,1.34,22.37,22.37,0,0,0,6.21-.67" transform="translate(-3.26 -2.87)" fill="none" stroke="#999" stroke-linecap="round" stroke-linejoin="round" stroke-width="0.57"/>
                  <path d="M211.21,127.67a23.75,23.75,0,0,1-4.74,1.65" transform="translate(-3.26 -2.87)" fill="none" stroke="#999" stroke-linecap="round" stroke-linejoin="round" stroke-width="0.57"/>
                  <path d="M197.15,128.85a33.94,33.94,0,0,1,5.4,2,16.06,16.06,0,0,0,12.32,1.71c1.45-.46,3.25-1.18,3.25-2.24,0-1.25-1.93-2.05-3-2.52a42.86,42.86,0,0,0-5.67-1.7c-1.78-.4-5-1.07-7.23-1.41a28.52,28.52,0,0,0-5.07-.14" transform="translate(-3.26 -2.87)" fill="none" stroke="#999" stroke-linecap="round" stroke-linejoin="round" stroke-width="0.28"/>
                  <path d="M217.12,12.18c0,.61-.52,1.09-1.31,1.64a14,14,0,0,1-4.23,1.39,6.88,6.88,0,0,1-3.43,0,31.67,31.67,0,0,1-3.67-1.48A19.58,19.58,0,0,0,202,13l-.56-.12s-.46-.12,0-.4a11.82,11.82,0,0,1,3.74-1.65,28.42,28.42,0,0,1,5.36-.67,15.16,15.16,0,0,1,4.57.64C216.36,11.24,217.12,11.93,217.12,12.18Z" transform="translate(-3.26 -2.87)" fill="none" stroke="#999" stroke-linecap="round" stroke-linejoin="round" stroke-width="0.28"/>
                  <path d="M215.54,11.6a2.1,2.1,0,0,0-.89-.5,18.14,18.14,0,0,0-7.31-.66" transform="translate(-3.26 -2.87)" fill="none" stroke="#999" stroke-linecap="round" stroke-linejoin="round" stroke-width="0.28"/>
                  <path d="M208.84,14.77a8.53,8.53,0,0,0,3.19-.28,11,11,0,0,0,2.7-1c.52-.3,1.08-.79,1.08-1.16a.94.94,0,0,0-.27-.72" transform="translate(-3.26 -2.87)" fill="none" stroke="#999" stroke-linecap="round" stroke-linejoin="round" stroke-width="0.57"/>
                  <path d="M201.89,13a14.57,14.57,0,0,1,3.79.61,14.34,14.34,0,0,0,3.16,1.18" transform="translate(-3.26 -2.87)" fill="none" stroke="#999" stroke-linecap="round" stroke-linejoin="round" stroke-width="0.28"/>
                  <path d="M207.29,13.18a3.13,3.13,0,0,1,2.26-1.34,22.37,22.37,0,0,1,6.21.67" transform="translate(-3.26 -2.87)" fill="none" stroke="#999" stroke-linecap="round" stroke-linejoin="round" stroke-width="0.57"/>
                  <path d="M211.25,14.66A23.75,23.75,0,0,0,206.51,13" transform="translate(-3.26 -2.87)" fill="none" stroke="#999" stroke-linecap="round" stroke-linejoin="round" stroke-width="0.57"/>
                  <path d="M197.19,13.48a33.94,33.94,0,0,0,5.4-2,16,16,0,0,1,12.32-1.71c1.45.45,3.25,1.18,3.25,2.24,0,1.25-1.93,2-3,2.52a43.32,43.32,0,0,1-5.67,1.7c-1.78.4-5,1.07-7.23,1.41a28.52,28.52,0,0,1-5.07.14" transform="translate(-3.26 -2.87)" fill="none" stroke="#999" stroke-linecap="round" stroke-linejoin="round" stroke-width="0.28"/>
                  <path d="M181.8,128.28a9.69,9.69,0,0,1,2.11.73,17.82,17.82,0,0,0,4.08,1.65c1.15.15,3.48.23,5.58.27s6.38.13,7.16.14" transform="translate(-3.26 -2.87)" fill="none" stroke="#999" stroke-linecap="round" stroke-linejoin="round" stroke-width="0.57"/>
                  <path d="M184.46,128.2s1.27.66,2,1.12a7.93,7.93,0,0,0,3.63,1.18c1.42,0,8.5.2,9.82.21" transform="translate(-3.26 -2.87)" fill="none" stroke="#999" stroke-linecap="round" stroke-linejoin="round" stroke-width="0.28"/>
                  <path d="M220.18,128.77S247,128,273.53,119" transform="translate(-3.26 -2.87)" fill="none" stroke="#999" stroke-linecap="round" stroke-linejoin="round" stroke-width="0.28"/>
                  <path d="M234.51,116.07s73.92-7.48,1-5.65" transform="translate(-3.26 -2.87)" fill="none" stroke="#999" stroke-linecap="round" stroke-linejoin="round" stroke-width="0.28"/>
                  <path d="M282.26,101s3.82-.12,7.53-.54" transform="translate(-3.26 -2.87)" fill="none" stroke="#999" stroke-linecap="round" stroke-linejoin="round" stroke-width="0.28"/>
                  <path d="M281.94,71.23c0,18.88-2.6,23.87-3.62,27.54s-2.47,3.94-2.47,3.94l-8.19.74v-.53l.07,0a3.73,3.73,0,0,0,1.91-2.46,157.16,157.16,0,0,0,2.59-29.26" transform="translate(-3.26 -2.87)" fill="none" stroke="#999" stroke-linecap="round" stroke-linejoin="round" stroke-width="0.43"/>
                  <path d="M267.66,102.92l8-.69A3.73,3.73,0,0,0,278,99.68" transform="translate(-3.26 -2.87)" fill="none" stroke="#999" stroke-linecap="round" stroke-linejoin="round" stroke-width="0.43"/>
                  <line x1="265.04" y1="98.18" x2="273.93" y2="97.72" fill="none" stroke="#999" stroke-linecap="round" stroke-linejoin="round" stroke-width="0.43"/>
                  <line x1="265.69" y1="95.24" x2="274.77" y2="94.85" fill="none" stroke="#999" stroke-linecap="round" stroke-linejoin="round" stroke-width="0.43"/>
                  <line x1="266.22" y1="92.26" x2="275.72" y2="91.96" fill="none" stroke="#999" stroke-linecap="round" stroke-linejoin="round" stroke-width="0.43"/>
                  <line x1="266.59" y1="89.33" x2="276.35" y2="89.08" fill="none" stroke="#999" stroke-linecap="round" stroke-linejoin="round" stroke-width="0.43"/>
                  <line x1="266.92" y1="86.3" x2="277.01" y2="86.17" fill="none" stroke="#999" stroke-linecap="round" stroke-linejoin="round" stroke-width="0.43"/>
                  <line x1="267.23" y1="83.32" x2="277.3" y2="83.19" fill="none" stroke="#999" stroke-linecap="round" stroke-linejoin="round" stroke-width="0.43"/>
                  <line x1="267.58" y1="80.39" x2="277.64" y2="80.27" fill="none" stroke="#999" stroke-linecap="round" stroke-linejoin="round" stroke-width="0.43"/>
                  <line x1="267.79" y1="77.42" x2="277.93" y2="77.3" fill="none" stroke="#999" stroke-linecap="round" stroke-linejoin="round" stroke-width="0.43"/>
                  <line x1="267.87" y1="74.27" x2="278.14" y2="74.27" fill="none" stroke="#999" stroke-linecap="round" stroke-linejoin="round" stroke-width="0.43"/>
                  <line x1="267.87" y1="71.35" x2="278.05" y2="71.35" fill="none" stroke="#999" stroke-linecap="round" stroke-linejoin="round" stroke-width="0.43"/>
                  <path d="M273.42,71.16" transform="translate(-3.26 -2.87)" fill="none" stroke="#999" stroke-linecap="round" stroke-linejoin="round" stroke-width="0.43"/>
                  <path d="M270.49,100.42" transform="translate(-3.26 -2.87)" fill="none" stroke="#999" stroke-linecap="round" stroke-linejoin="round" stroke-width="0.43"/>
                  <path d="M281.91,74.63A5.67,5.67,0,0,0,284.52,76" transform="translate(-3.26 -2.87)" fill="none" stroke="#999" stroke-linecap="round" stroke-linejoin="round" stroke-width="0.43"/>
                  <path d="M279.85,93.69a4.09,4.09,0,0,1,1.28-.94,8.22,8.22,0,0,1,1.93-.55" transform="translate(-3.26 -2.87)" fill="none" stroke="#999" stroke-linecap="round" stroke-linejoin="round" stroke-width="0.43"/>
                  <path d="M280,93.19s1.12-1.12,1.48-1.57a3.19,3.19,0,0,0,.81-1.53,38.47,38.47,0,0,0,.8-4.3,22.51,22.51,0,0,0,0-5.84,8,8,0,0,0-1.24-2" transform="translate(-3.26 -2.87)" fill="none" stroke="#999" stroke-linecap="round" stroke-linejoin="round" stroke-width="0.43"/>
                  <path d="M281.94,75.19a4.1,4.1,0,0,0,1,1.06v3.33" transform="translate(-3.26 -2.87)" fill="none" stroke="#999" stroke-linecap="round" stroke-linejoin="round" stroke-width="0.43"/>
                  <path d="M300,108.81s1.91-1.78,2-2a9.56,9.56,0,0,0,.88-2.44,135.62,135.62,0,0,0,2.5-13.8c.08-.8.15-1.56.18-2.26" transform="translate(-3.26 -2.87)" fill="none" stroke="#999" stroke-linecap="round" stroke-linejoin="round" stroke-width="0.43"/>
                  <path d="M305.42,90.58l.49.26s.52,0-.75,6.35a1.34,1.34,0,0,1-.92.92" transform="translate(-3.26 -2.87)" fill="none" stroke="#999" stroke-linecap="round" stroke-linejoin="round" stroke-width="0.43"/>
                  <path d="M304.15,98.57l.47.23s.19.11.09.56a37.23,37.23,0,0,1-1.18,5.24,3.78,3.78,0,0,1-1.36,2" transform="translate(-3.26 -2.87)" fill="none" stroke="#999" stroke-linecap="round" stroke-linejoin="round" stroke-width="0.43"/>
                  <path d="M95.9,100.73a67.13,67.13,0,0,1-6.32-29.46" transform="translate(-3.26 -2.87)" fill="none" stroke="#999" stroke-linecap="round" stroke-linejoin="round" stroke-width="0.28"/>
                  <path d="M112.15,120.44s-7.64-4.68-14-15.56" transform="translate(-3.26 -2.87)" fill="none" stroke="#999" stroke-linecap="round" stroke-linejoin="round" stroke-width="0.28"/>
                  <path d="M233.38,30.14a5.84,5.84,0,0,0-2-.93l-3.07-.61c-7.83-1.57-29.9-4.28-40.22-5.32s-27.76-1.56-36.93-1.77c-6.6-.15-22.29.39-31.5.47" transform="translate(-3.26 -2.87)" fill="none" stroke="#999" stroke-linecap="round" stroke-linejoin="round" stroke-width="0.57"/>
                  <path d="M24.2,17.15" transform="translate(-3.26 -2.87)" fill="none" stroke="#999" stroke-linecap="round" stroke-linejoin="round" stroke-width="0.57"/>
                  <path d="M32.06,13.17" transform="translate(-3.26 -2.87)" fill="none" stroke="#999" stroke-linecap="round" stroke-linejoin="round" stroke-width="0.57"/>
                  <path d="M123.52,12.74c-8.91-.16-15.68-.32-16.78-.32a14.73,14.73,0,0,1-5.88-1,31.34,31.34,0,0,0-9.24-1.6c-4-.18-13.68-.37-21.27-.55s-13.4.06-16.74.23c0,0-5.37.12-8.38.47,0,0-3.38.48-5.92,1s-6.26.75-9.32,2.4-4.89,2.87-8.42,7.88-9.27,13.49-11.11,17S7,44,6.48,46,5.18,53,4.86,55.56A129.16,129.16,0,0,0,4,71.16" transform="translate(-3.26 -2.87)" fill="none" stroke="#999" stroke-linecap="round" stroke-linejoin="round" stroke-width="0.57"/>
                  <path d="M14,45.93l.12-.08a4.18,4.18,0,0,1,.6-.29c1.75-.65,41.32-14.15,80-20.29,0,0,6.23-.83,11.29-1" transform="translate(-3.26 -2.87)" fill="none" stroke="#999" stroke-linecap="round" stroke-linejoin="round" stroke-width="0.57"/>
                  <path d="M10.23,71.17c0-15,2.68-23.2,2.68-23.2s.52-1.75,1.09-2" transform="translate(-3.26 -2.87)" fill="none" stroke="#999" stroke-linecap="round" stroke-linejoin="round" stroke-width="0.57"/>
                  <path d="M51.66,9.62c-.74.07-3.66,1-3.66,1C44,12,37.84,14.35,33.65,16.05c-3.86,1.56-7.18,5.48-11.06,11.77C19,33.69,14.14,45.07,14.14,45.07s-.27.73-.32,1" transform="translate(-3.26 -2.87)" fill="none" stroke="#999" stroke-linecap="round" stroke-linejoin="round" stroke-width="0.43"/>
                  <path d="M283,24.81" transform="translate(-3.26 -2.87)" fill="none" stroke="#999" stroke-linecap="round" stroke-linejoin="round" stroke-width="0.43"/>
                  <path d="M145.72,27.78" transform="translate(-3.26 -2.87)" fill="none" stroke="#999" stroke-linecap="round" stroke-linejoin="round" stroke-width="0.43"/>
                  <path d="M114.85,21.24c-6.71,1.24-27.57,7.84-29.34,49.82" transform="translate(-3.26 -2.87)" fill="none" stroke="#999" stroke-linecap="round" stroke-linejoin="round" stroke-width="0.57"/>
                  <path d="M116.13,21.28" transform="translate(-3.26 -2.87)" fill="none" stroke="#999" stroke-linecap="round" stroke-linejoin="round" stroke-width="0.57"/>
                  <path d="M116.93,21.24c-.28,0-1.83,0-2.08,0" transform="translate(-3.26 -2.87)" fill="none" stroke="#999" stroke-linecap="round" stroke-linejoin="round" stroke-width="0.57"/>
                  <path d="M234.51,29.47c0-.76-2.17-1.48-2.17-1.48-1-.21-2.24-.54-3.26-.74-7.83-1.57-29.78-4-40.1-5s-27.76-1.56-36.93-1.77c-7.68-.18-26.45.32-35.12.8" transform="translate(-3.26 -2.87)" fill="none" stroke="#999" stroke-linecap="round" stroke-linejoin="round" stroke-width="0.28"/>
                  <path d="M116.93,21.26l24.8,6.51s9.2,2.51,13.11,3.17S168,32,173.64,32.19c16.44.43,55.94-1.29,58.38-1.51s2.49-1.25,2.49-1.25" transform="translate(-3.26 -2.87)" fill="none" stroke="#999" stroke-linecap="round" stroke-linejoin="round" stroke-width="0.57"/>
                  <path d="M51.53,20.21c10.27-.54,34.68-1.72,57.16-1.87" transform="translate(-3.26 -2.87)" fill="none" stroke="#999" stroke-linecap="round" stroke-linejoin="round" stroke-width="0.28"/>
                  <path d="M12.68,55s35.51-3.39,75.44-6.24" transform="translate(-3.26 -2.87)" fill="none" stroke="#999" stroke-linecap="round" stroke-linejoin="round" stroke-width="0.28"/>
                  <path d="M128.08,71.06a2.69,2.69,0,0,1,2.71-2.68l.26-.21v-3.5A2.56,2.56,0,0,1,132.81,62c.74-.22,5.84-1.37,5.84-1.37.17-10.87,2-25.25,2.1-25.83s-.23-.69-.23-.69-26.75-6-28.15-6.27a2,2,0,0,0-2,.4A71.29,71.29,0,0,0,95.93,71.06" transform="translate(-3.26 -2.87)" fill="none" stroke="#999" stroke-linecap="round" stroke-linejoin="round" stroke-width="0.28"/>
                  <path d="M217.82,61.28" transform="translate(-3.26 -2.87)" fill="none" stroke="#999" stroke-linecap="round" stroke-linejoin="round" stroke-width="0.43"/>
                  <path d="M214.77,62.28" transform="translate(-3.26 -2.87)" fill="none" stroke="#999" stroke-linecap="round" stroke-linejoin="round" stroke-width="0.43"/>
                  <path d="M214.25,62.6" transform="translate(-3.26 -2.87)" fill="none" stroke="#999" stroke-linecap="round" stroke-linejoin="round" stroke-width="0.43"/>
                  <path d="M216.73,61.85" transform="translate(-3.26 -2.87)" fill="none" stroke="#999" stroke-linecap="round" stroke-linejoin="round" stroke-width="0.43"/>
                  <path d="M18.31,71.16a5.23,5.23,0,0,0-.24-1.8h-2s-1.72.34-1.72,1.8" transform="translate(-3.26 -2.87)" fill="none" stroke="#999" stroke-linecap="round" stroke-linejoin="round" stroke-width="0.43"/>
                  <path d="M260.51,38.74c.68,2.23,3.58,12.94,3.58,32.19" transform="translate(-3.26 -2.87)" fill="none" stroke="#999" stroke-linecap="round" stroke-linejoin="round" stroke-width="0.43"/>
                  <path d="M187.46,23.32s.7.84,5.64,8.85" transform="translate(-3.26 -2.87)" fill="none" stroke="#999" stroke-linecap="round" stroke-linejoin="round" stroke-width="0.43"/>
                  <path d="M216.63,71v-27c0-4.87,5-4.42,5-4.42l32.92,2s3.88.18,4.89,8.92a183.48,183.48,0,0,1,1,20.6" transform="translate(-3.26 -2.87)" fill="none" stroke="#999" stroke-linecap="round" stroke-linejoin="round" stroke-width="0.28"/>
                  <path d="M209.32,42.24" transform="translate(-3.26 -2.87)" fill="none" stroke="#999" stroke-linecap="round" stroke-linejoin="round" stroke-width="0.43"/>
                  <path d="M215.1,62.43" transform="translate(-3.26 -2.87)" fill="none" stroke="#999" stroke-linecap="round" stroke-linejoin="round" stroke-width="0.43"/>
                  <path d="M130.91,16.43a2.53,2.53,0,0,1-2.41,1.64h-4a2.49,2.49,0,0,1-2.55-2.44,2.38,2.38,0,0,1,.28-1.12s5.24-6.9,9-9.17" transform="translate(-3.26 -2.87)" fill="none" stroke="#999" stroke-linecap="round" stroke-linejoin="round" stroke-width="0.57"/>
                  <path d="M136.47,13.52c-1.11,2.61-1.85,2.7-1.85,2.7l-9.73.59a1.77,1.77,0,0,1-1.8-1.73,1.34,1.34,0,0,1,0-.35,17.72,17.72,0,0,1,4-5.86c3.12-3.29,6.08-5.7,12.15-5.23,0,0,1.36-.26-.4,3.84Z" transform="translate(-3.26 -2.87)" fill="none" stroke="#999" stroke-linecap="round" stroke-linejoin="round" stroke-width="0.57"/>
                  <path d="M218.32,36.5c2.16,0,57.15,2.72,57.15,2.72a9.43,9.43,0,0,1,3.4.71c1.51.71,2.31,1.7,2.85,3.82.06.22.14.54.23.94a113.85,113.85,0,0,1,2.76,26.45" transform="translate(-3.26 -2.87)" fill="none" stroke="#999" stroke-linecap="round" stroke-linejoin="round" stroke-width="0.57"/>
                  <path d="M213.81,71.07V40.63c0-4.6,4.51-4.13,4.51-4.13" transform="translate(-3.26 -2.87)" fill="none" stroke="#999" stroke-linecap="round" stroke-linejoin="round" stroke-width="0.43"/>
                  <path d="M144.81,35.82s37.76,2.36,68.66,4.45" transform="translate(-3.26 -2.87)" fill="none" stroke="#999" stroke-linecap="round" stroke-linejoin="round" stroke-width="0.28"/>
                  <path d="M213.81,71.07V40.63c0-4.6,4.51-4.13,4.51-4.13" transform="translate(-3.26 -2.87)" fill="none" stroke="#999" stroke-linecap="round" stroke-linejoin="round" stroke-width="0.57"/>
                  <path d="M111.27,22.94s29.49,8.49,30.94,8.83,2.72,1.1,1.85,5.52c-.92,4.65-3.34,10.38-3.34,33.74" transform="translate(-3.26 -2.87)" fill="none" stroke="#999" stroke-linecap="round" stroke-linejoin="round" stroke-width="0.57"/>
                  <path d="M192.62,14.91" transform="translate(-3.26 -2.87)" fill="none" stroke="#999" stroke-linecap="round" stroke-linejoin="round" stroke-width="0.43"/>
                  <path d="M188.24,23.32s4.32-5,4.32-8.22c0,0,.06-.63-1.15-.84" transform="translate(-3.26 -2.87)" fill="none" stroke="#999" stroke-linecap="round" stroke-linejoin="round" stroke-width="0.43"/>
                  <path d="M39.31,13.81a5,5,0,0,0,2.75-.33c1.6-.6,10.08-3.9,10.08-3.9" transform="translate(-3.26 -2.87)" fill="none" stroke="#999" stroke-linecap="round" stroke-linejoin="round" stroke-width="0.43"/>
                  <path d="M114.85,21.24s-1.27-.24-8.32-8.71" transform="translate(-3.26 -2.87)" fill="none" stroke="#999" stroke-linecap="round" stroke-linejoin="round" stroke-width="0.57"/>
                  <path d="M136.66,13.05s27.51.64,42.48.95c0,0,4.33.07,6.2.13a49.91,49.91,0,0,0,6.92,0,21.84,21.84,0,0,0,6.07-1.74c2.23-1.06,5.58-2.61,6.53-3.14A8.69,8.69,0,0,1,209.45,8s13.91-.32,16.52-.32h21.28c4.66,0,9,.17,11.37.25a22.35,22.35,0,0,1,6.89,1.16c1.76.71,10.43,3.92,14.11,5.54s9.14,4.07,12.1,6.65A30.27,30.27,0,0,1,299,31.15a73.88,73.88,0,0,1,6.71,23.68c1,10.68,1.06,13.31,1.06,16.34" transform="translate(-3.26 -2.87)" fill="none" stroke="#999" stroke-linecap="round" stroke-linejoin="round" stroke-width="0.43"/>
                  <path d="M145.72,114.55" transform="translate(-3.26 -2.87)" fill="none" stroke="#999" stroke-linecap="round" stroke-linejoin="round" stroke-width="0.43"/>
                  <path d="M45.8,20.21c-1.76-3.06-5.57-3.66-10.94-.49-4.36,2.57-6.51,7-4.82,9.83S36.63,32.62,41,30,47.45,23.08,45.8,20.21Z" transform="translate(-3.26 -2.87)" fill="none" stroke="#999" stroke-linecap="round" stroke-linejoin="round" stroke-width="0.28"/>
                  <path d="M32.31,31.4c2.46,1.16,6.28.86,9.72-1.18,4.66-2.76,6.93-7.45,5.16-10.53-1.88-3.27-6-3.91-11.71-.52a14,14,0,0,0-2.95,2.29" transform="translate(-3.26 -2.87)" fill="none" stroke="#999" stroke-linecap="round" stroke-linejoin="round" stroke-width="0.28"/>
                  <path d="M50.21,19.92C48.4,16,43.62,14.59,36.35,18c-5.91,2.79-9.16,8.33-7.5,12.05,1.39,3.09,7.6,4.17,13.5,1.36S51.91,23.62,50.21,19.92Z" transform="translate(-3.26 -2.87)" fill="none" stroke="#999" stroke-linecap="round" stroke-linejoin="round" stroke-width="0.28"/>
                  <path d="M39.11,32.61a43.68,43.68,0,0,1-4.89,1c-4.74.69-8.83-.8-9.7-3.31-1.1-3.19,1.42-7.39,5.95-10a41.52,41.52,0,0,1,9.23-4.25s5.88-1.91,8.82,1.53" transform="translate(-3.26 -2.87)" fill="none" stroke="#999" stroke-linecap="round" stroke-linejoin="round" stroke-width="0.28"/>
                  <path d="M42.83,28.47a1.55,1.55,0,0,1-.6-.58c-.31-.48-.38-1-.16-1.12s.66.12,1,.59a2.09,2.09,0,0,1,.27.66" transform="translate(-3.26 -2.87)" fill="none" stroke="#999" stroke-linecap="round" stroke-linejoin="round" stroke-width="0.28"/>
                  <path d="M42.09,21.14c.38-.58.87-.93,1.09-.78s.09.73-.29,1.31-.87.92-1.1.78S41.7,21.71,42.09,21.14Z" transform="translate(-3.26 -2.87)" fill="none" stroke="#999" stroke-linecap="round" stroke-linejoin="round" stroke-width="0.28"/>
                  <polyline points="38.97 25.02 37.45 24.41 37.36 18.98 38.69 18.31" fill="none" stroke="#999" stroke-linecap="round" stroke-linejoin="round" stroke-width="0.28"/>
                  <polyline points="39.37 23.71 40.2 23.32 40.2 20.05 39.23 19.61" fill="none" stroke="#999" stroke-linecap="round" stroke-linejoin="round" stroke-width="0.28"/>
                  <path d="M41.94,26.58a1.39,1.39,0,0,1-.37-.9V23.3a.76.76,0,0,1,.37-.64" transform="translate(-3.26 -2.87)" fill="none" stroke="#999" stroke-linecap="round" stroke-linejoin="round" stroke-width="0.28"/>
                  <line x1="38.97" y1="23.86" x2="41.14" y2="23.97" fill="none" stroke="#999" stroke-linecap="round" stroke-linejoin="round" stroke-width="0.28"/>
                  <line x1="39.72" y1="17.45" x2="42.34" y2="17.34" fill="none" stroke="#999" stroke-linecap="round" stroke-linejoin="round" stroke-width="0.28"/>
                  <path d="M43.29,22.66A6.74,6.74,0,0,1,46,22.13" transform="translate(-3.26 -2.87)" fill="none" stroke="#999" stroke-linecap="round" stroke-linejoin="round" stroke-width="0.28"/>
                  <path d="M43.64,23.54s2.15-.62,2.38-.72" transform="translate(-3.26 -2.87)" fill="none" stroke="#999" stroke-linecap="round" stroke-linejoin="round" stroke-width="0.28"/>
                  <path d="M43.31,20.31a3.68,3.68,0,0,1,1.7-1" transform="translate(-3.26 -2.87)" fill="none" stroke="#999" stroke-linecap="round" stroke-linejoin="round" stroke-width="0.28"/>
                  <path d="M41.76,21.27s-.24-.36-1.58-.41-5.46-.26-5.46-.26" transform="translate(-3.26 -2.87)" fill="none" stroke="#999" stroke-linecap="round" stroke-linejoin="round" stroke-width="0.28"/>
                  <path d="M31.69,30l7.15-1.23a19.61,19.61,0,0,0,3.1-.76" transform="translate(-3.26 -2.87)" fill="none" stroke="#999" stroke-linecap="round" stroke-linejoin="round" stroke-width="0.28"/>
                  <path d="M31,29.35,39,27.6a1.39,1.39,0,0,0,1-1.39V22.66a1.2,1.2,0,0,0-1.09-1.13c-1.08-.16-4.73-.35-4.73-.35" transform="translate(-3.26 -2.87)" fill="none" stroke="#999" stroke-linecap="round" stroke-linejoin="round" stroke-width="0.28"/>
                  <path d="M44,19.55c-1.87-1.6-4.88-1.58-8.79.72s-5.76,6.33-4.17,9,6.08,3.08,10,.77" transform="translate(-3.26 -2.87)" fill="none" stroke="#999" stroke-linecap="round" stroke-linejoin="round" stroke-width="0.28"/>
                  <path d="M23.08,19.22,22.77,19s-.45-.25,0-.62a17.94,17.94,0,0,1,2.87-2" transform="translate(-3.26 -2.87)" fill="none" stroke="#999" stroke-linecap="round" stroke-linejoin="round" stroke-width="0.43"/>
                  <path d="M282,44.69a11.32,11.32,0,0,0-.77-3.5,23.45,23.45,0,0,0-1.62-2.45,2,2,0,0,1-.57-1.85,97.2,97.2,0,0,1,1.77-9.61s.46-1.47,1.19-1.61a2.3,2.3,0,0,1,1.94.38c.75.47,3.48,2.16,4.33,2.89a18.22,18.22,0,0,1,3.48,4.76A49.28,49.28,0,0,1,296.43,47a118.25,118.25,0,0,1,2.3,24.15" transform="translate(-3.26 -2.87)" fill="none" stroke="#999" stroke-linecap="round" stroke-linejoin="round" stroke-width="0.57"/>
                  <path d="M266.19,9.34a24.34,24.34,0,0,0,6,3.86c3.92,1.84,10.47,4.8,13.38,6.35s11.55,6.55,14.18,13.39" transform="translate(-3.26 -2.87)" fill="none" stroke="#999" stroke-linecap="round" stroke-linejoin="round" stroke-width="0.43"/>
                  <path d="M246.41,7.66s8.68,4,12.67,6,8.58,4.06,12.18,5.86,7.35,3.65,9.24,4.78,2.07,1.27,2.07,1.27" transform="translate(-3.26 -2.87)" fill="none" stroke="#999" stroke-linecap="round" stroke-linejoin="round" stroke-width="0.43"/>
                  <path d="M297.27,41.51s3.87,9.72,3.87,29.63" transform="translate(-3.26 -2.87)" fill="none" stroke="#999" stroke-linecap="round" stroke-linejoin="round" stroke-width="0.28"/>
                  <path d="M279.84,37.73a31.85,31.85,0,0,1,7.83,1.15" transform="translate(-3.26 -2.87)" fill="none" stroke="#999" stroke-linecap="round" stroke-linejoin="round" stroke-width="0.28"/>
                  <path d="M275.74,39.23l-.16-1.63s-.16-2.18-.19-2.81a11.33,11.33,0,0,1,.66-5.05A30.38,30.38,0,0,1,279,24.18l.27-.57" transform="translate(-3.26 -2.87)" fill="none" stroke="#999" stroke-linecap="round" stroke-linejoin="round" stroke-width="0.28"/>
                  <path d="M276.07,37.45l2.47.15" transform="translate(-3.26 -2.87)" fill="none" stroke="#999" stroke-linecap="round" stroke-linejoin="round" stroke-width="0.28"/>
                  <path d="M274.88,37.39c-3.48-.18-7.94-.38-12.32-.63-6.14-.36-26.92-1.18-36.94-1.48S188.8,34.1,188.8,34.1s-19.33-.64-26.6-1.27a89.74,89.74,0,0,1-17.39-3c-5.54-1.5-25.39-7.35-30-8.57" transform="translate(-3.26 -2.87)" fill="none" stroke="#999" stroke-linecap="round" stroke-linejoin="round" stroke-width="0.28"/>
                  <path d="M212.47,7.91s.49-.8,4.68-1,14.26-.45,18.35-.45" transform="translate(-3.26 -2.87)" fill="none" stroke="#999" stroke-linecap="round" stroke-linejoin="round" stroke-width="0.57"/>
                  <path d="M258.54,7.91s-.49-.8-4.68-1-14.26-.45-18.36-.45" transform="translate(-3.26 -2.87)" fill="none" stroke="#999" stroke-linecap="round" stroke-linejoin="round" stroke-width="0.57"/>
                  <path d="M258.16,7.91" transform="translate(-3.26 -2.87)" fill="none" stroke="#999" stroke-linecap="round" stroke-linejoin="round" stroke-width="0.28"/>
                  <path d="M181.8,14.05a9.69,9.69,0,0,0,2.11-.73A18.34,18.34,0,0,1,188,11.66c1.15-.14,3.48-.23,5.58-.26l7.16-.15" transform="translate(-3.26 -2.87)" fill="none" stroke="#999" stroke-linecap="round" stroke-linejoin="round" stroke-width="0.28"/>
                  <path d="M184.46,14.13s1.27-.67,2-1.12a7.81,7.81,0,0,1,3.63-1.18c1.42,0,8.5-.2,9.82-.21" transform="translate(-3.26 -2.87)" fill="none" stroke="#999" stroke-linecap="round" stroke-linejoin="round" stroke-width="0.28"/>
                  <path d="M220.18,13.56s26.86.82,53.35,9.76" transform="translate(-3.26 -2.87)" fill="none" stroke="#999" stroke-linecap="round" stroke-linejoin="round" stroke-width="0.28"/>
                  <path d="M234.51,26.26s73.92,7.48,1,5.65" transform="translate(-3.26 -2.87)" fill="none" stroke="#999" stroke-linecap="round" stroke-linejoin="round" stroke-width="0.28"/>
                  <path d="M282.26,41.37s3.81.12,7.53.54" transform="translate(-3.26 -2.87)" fill="none" stroke="#999" stroke-linecap="round" stroke-linejoin="round" stroke-width="0.28"/>
                  <path d="M281.94,71.1c0-18.88-2.6-23.87-3.62-27.54s-2.47-3.94-2.47-3.94l-8.19-.74v.53l.07,0a3.73,3.73,0,0,1,1.91,2.46,157.63,157.63,0,0,1,2.58,29.26" transform="translate(-3.26 -2.87)" fill="none" stroke="#999" stroke-linecap="round" stroke-linejoin="round" stroke-width="0.43"/>
                  <path d="M267.66,39.41l8,.69A3.71,3.71,0,0,1,278,42.65" transform="translate(-3.26 -2.87)" fill="none" stroke="#999" stroke-linecap="round" stroke-linejoin="round" stroke-width="0.43"/>
                  <line x1="265.04" y1="38.41" x2="273.8" y2="38.86" fill="none" stroke="#999" stroke-linecap="round" stroke-linejoin="round" stroke-width="0.43"/>
                  <line x1="265.69" y1="41.34" x2="274.88" y2="41.74" fill="none" stroke="#999" stroke-linecap="round" stroke-linejoin="round" stroke-width="0.43"/>
                  <line x1="266.22" y1="44.32" x2="275.76" y2="44.62" fill="none" stroke="#999" stroke-linecap="round" stroke-linejoin="round" stroke-width="0.43"/>
                  <line x1="266.59" y1="47.26" x2="276.38" y2="47.51" fill="none" stroke="#999" stroke-linecap="round" stroke-linejoin="round" stroke-width="0.43"/>
                  <line x1="266.92" y1="50.29" x2="277.01" y2="50.41" fill="none" stroke="#999" stroke-linecap="round" stroke-linejoin="round" stroke-width="0.43"/>
                  <line x1="267.23" y1="53.27" x2="277.38" y2="53.39" fill="none" stroke="#999" stroke-linecap="round" stroke-linejoin="round" stroke-width="0.43"/>
                  <line x1="267.58" y1="56.2" x2="277.63" y2="56.32" fill="none" stroke="#999" stroke-linecap="round" stroke-linejoin="round" stroke-width="0.43"/>
                  <line x1="267.79" y1="59.16" x2="277.93" y2="59.29" fill="none" stroke="#999" stroke-linecap="round" stroke-linejoin="round" stroke-width="0.43"/>
                  <line x1="267.87" y1="62.31" x2="277.97" y2="62.31" fill="none" stroke="#999" stroke-linecap="round" stroke-linejoin="round" stroke-width="0.43"/>
                  <line x1="267.87" y1="65.24" x2="278.05" y2="65.24" fill="none" stroke="#999" stroke-linecap="round" stroke-linejoin="round" stroke-width="0.43"/>
                  <line x1="267.91" y1="68.3" x2="278.09" y2="68.3" fill="none" stroke="#999" stroke-linecap="round" stroke-linejoin="round" stroke-width="0.43"/>
                  <path d="M278.1,71.17" transform="translate(-3.26 -2.87)" fill="none" stroke="#999" stroke-linecap="round" stroke-linejoin="round" stroke-width="0.43"/>
                  <path d="M275.17,42.07" transform="translate(-3.26 -2.87)" fill="none" stroke="#999" stroke-linecap="round" stroke-linejoin="round" stroke-width="0.43"/>
                  <path d="M281.91,67.7a5.67,5.67,0,0,1,2.61-1.36" transform="translate(-3.26 -2.87)" fill="none" stroke="#999" stroke-linecap="round" stroke-linejoin="round" stroke-width="0.43"/>
                  <path d="M279.85,48.64a4.09,4.09,0,0,0,1.28.94,8.22,8.22,0,0,0,1.93.55" transform="translate(-3.26 -2.87)" fill="none" stroke="#999" stroke-linecap="round" stroke-linejoin="round" stroke-width="0.43"/>
                  <path d="M280,49.14s1.12,1.12,1.48,1.57a3.19,3.19,0,0,1,.81,1.53,38.47,38.47,0,0,1,.8,4.3,22.5,22.5,0,0,1,0,5.84,8.08,8.08,0,0,1-1.24,2" transform="translate(-3.26 -2.87)" fill="none" stroke="#999" stroke-linecap="round" stroke-linejoin="round" stroke-width="0.43"/>
                  <path d="M281.94,67.14a3.89,3.89,0,0,1,1-1.06V62.75" transform="translate(-3.26 -2.87)" fill="none" stroke="#999" stroke-linecap="round" stroke-linejoin="round" stroke-width="0.43"/>
                  <path d="M300,33.51s1.91,1.79,2,2a9.59,9.59,0,0,1,.88,2.43,136.54,136.54,0,0,1,2.5,13.81c.08.8.14,1.56.18,2.26" transform="translate(-3.26 -2.87)" fill="none" stroke="#999" stroke-linecap="round" stroke-linejoin="round" stroke-width="0.43"/>
                  <path d="M305.42,51.75l.49-.26s.52,0-.75-6.36a1.33,1.33,0,0,0-.92-.91" transform="translate(-3.26 -2.87)" fill="none" stroke="#999" stroke-linecap="round" stroke-linejoin="round" stroke-width="0.43"/>
                  <path d="M304.15,43.76l.47-.23s.19-.12.09-.56a37.23,37.23,0,0,0-1.18-5.24,3.78,3.78,0,0,0-1.36-2" transform="translate(-3.26 -2.87)" fill="none" stroke="#999" stroke-linecap="round" stroke-linejoin="round" stroke-width="0.43"/>
                  <path d="M89.7,66.63c-.08,1.44-.12,2.91-.12,4.43" transform="translate(-3.26 -2.87)" fill="none" stroke="#999" stroke-linecap="round" stroke-linejoin="round" stroke-width="0.28"/>
                  <path d="M90.27,60.62c-.19,1.44-.35,2.91-.47,4.43" transform="translate(-3.26 -2.87)" fill="none" stroke="#999" stroke-linecap="round" stroke-linejoin="round" stroke-width="0.28"/>
                  <path d="M112.15,21.89S95.62,32,90.85,57.09" transform="translate(-3.26 -2.87)" fill="none" stroke="#999" stroke-linecap="round" stroke-linejoin="round" stroke-width="0.28"/>
                  <path d="M267.66,102.3s3.18-11.39,3.18-31.11" transform="translate(-3.26 -2.87)" fill="none" stroke="#999" stroke-linecap="round" stroke-linejoin="round" stroke-width="0.57"/>
                  <path d="M267.66,40.12s3.18,11.39,3.18,31.11" transform="translate(-3.26 -2.87)" fill="none" stroke="#999" stroke-linecap="round" stroke-linejoin="round" stroke-width="0.57"/>
                </svg>