<svg xmlns="http://www.w3.org/2000/svg" viewBox="0 0 286.79 137.04"><path d="M133.9,10.07c5-.06,9.42-.12,11.43-.12,6,0,28.87.46,33.47.35s20.89-1,26.46-1.32,16.59-1.15,20.5-1.15,20.55.11,22.68.17a49.49,49.49,0,0,1,6.88.69,40.84,40.84,0,0,1,5.06,1.61c1.09.29,4.7,1.26,7.17,2.12s8,2.93,11.08,5.46S287.93,27,291,40.67c0,0,3.15,14.58,3.15,27.56" transform="translate(-7.55 0.35)" fill="none" stroke="#999999" stroke-linecap="round" stroke-linejoin="round" stroke-width="0.43"/><path d="M7.77,68.17c0-21.82,7-33.76,7-33.76s4.65-9.7,9.81-14.87,12.12-6.83,14.7-7.35c0,0,15.79-3.9,39-3.67,0,0,9.76.17,13.15.57s12.11,1.09,16.36,1.15c1.84.06,7.81-.06,14.58-.11" transform="translate(-7.55 0.35)" fill="none" stroke="#999999" stroke-linecap="round" stroke-linejoin="round" stroke-width="0.43"/><path d="M15.64,68.23A55.78,55.78,0,0,1,18.16,51s1.95-6.37,3.91-8.72a19.69,19.69,0,0,1,7.63-4.54c5.11-1.78,23.14-8,31.12-9.93s17-4.13,22.27-5.17,13.78-2.81,21.47-1.84" transform="translate(-7.55 0.35)" fill="none" stroke="#999999" stroke-linecap="round" stroke-linejoin="round" stroke-width="0.43"/><path d="M24.53,34.35s-.51-.63.23-2.52S28.21,24,31.19,20.69s5.11-5,8-5.68A43.18,43.18,0,0,1,47,13.63c2.36-.12,2.58.69,2.58.69s.75,1-.91,3.44A34.42,34.42,0,0,1,37.91,28.1c-5.45,3.15-9.36,5.51-10.79,6.08s-1.95.86-2.59.17Z" transform="translate(-7.55 0.35)" fill="none" stroke="#999999" stroke-linecap="round" stroke-linejoin="round" stroke-width="0.43"/><path d="M25.85,39.41a16.79,16.79,0,0,1,.64-4.83" transform="translate(-7.55 0.35)" fill="none" stroke="#999999" stroke-linecap="round" stroke-linejoin="round" stroke-width="0.43"/><path d="M37.74,15.29a1.33,1.33,0,0,1,.8-1.09c.81-.28,8.9-3.44,11.89-3.9" transform="translate(-7.55 0.35)" fill="none" stroke="#999999" stroke-linecap="round" stroke-linejoin="round" stroke-width="0.43"/><path d="M91.36,9.67c3.73.4,6.72,1.66,6.6,2.93s-3.27,1.89-7,1.55-6.72-1.67-6.6-2.93S87.63,9.27,91.36,9.67Z" transform="translate(-7.55 0.35)" fill="none" stroke="#999999" stroke-linecap="round" stroke-linejoin="round" stroke-width="0.43"/><path d="M139.24,68.28c0-11.36,1.15-25.2,1.15-25.2s1.32-8.9,1.66-11.08a44.17,44.17,0,0,0,.58-5.51c0-1,.51-3-1.95-3.5s-26.53-5.86-26.53-5.86c-16,3.45-23.65,19.18-23.65,19.18s-7.12,12-7.12,32" transform="translate(-7.55 0.35)" fill="none" stroke="#999999" stroke-linecap="round" stroke-linejoin="round" stroke-width="0.43"/><path d="M114.21,17s9.7-.58,35.42-.58c0,0,23.25,1,33.53,1.49s22,.64,27.21,1,8.56.74,11.43,2.41,7.46,4.82,8.78,11.37S233,51.18,233,68.17" transform="translate(-7.55 0.35)" fill="none" stroke="#999999" stroke-linecap="round" stroke-linejoin="round" stroke-width="0.43"/><path d="M227,25.51a17.45,17.45,0,0,1,12.4-1c7.24,1.95,26.82,7.75,40.88,15" transform="translate(-7.55 0.35)" fill="none" stroke="#999999" stroke-linecap="round" stroke-linejoin="round" stroke-width="0.43"/><path d="M283.8,68.17a82,82,0,0,0-1.49-16S281,45,280.76,43.42s-.81-4.59-.35-6.83,1-4.53,1-4.53" transform="translate(-7.55 0.35)" fill="none" stroke="#999999" stroke-linecap="round" stroke-linejoin="round" stroke-width="0.43"/><path d="M240.69,68.23V56s.05-3.56,3-3.56h1.66V68.23" transform="translate(-7.55 0.35)" fill="none" stroke="#999999" stroke-linecap="round" stroke-linejoin="round" stroke-width="0.43"/><path d="M245.39,52.44s17,.17,24.4,2.93" transform="translate(-7.55 0.35)" fill="none" stroke="#999999" stroke-linecap="round" stroke-linejoin="round" stroke-width="0.43"/><path d="M203.14,68.23c0-16.65.57-21.3.57-21.3s.75-8,1.78-14c0,0,.29-1.9,2.87-1.67l19.24,1.78" transform="translate(-7.55 0.35)" fill="none" stroke="#999999" stroke-linecap="round" stroke-linejoin="round" stroke-width="0.43"/><path d="M230.18,68.17s.17-12.06-.23-17.63-1.26-14.18-2.3-17.33" transform="translate(-7.55 0.35)" fill="none" stroke="#999999" stroke-linecap="round" stroke-linejoin="round" stroke-width="0.43"/><path d="M197.91,52.73s-.8,7.46-.8,15.5" transform="translate(-7.55 0.35)" fill="none" stroke="#999999" stroke-linecap="round" stroke-linejoin="round" stroke-width="0.43"/><path d="M185.11,25.17l-45.87-2.64" transform="translate(-7.55 0.35)" fill="none" stroke="#999999" stroke-linecap="round" stroke-linejoin="round" stroke-width="0.43"/><path d="M121.33,18.57l63.84,1.37a18.49,18.49,0,0,0,.11,2.47s-.17.52-.34,1.15-.06,1.15,1.15,2.47,7.75,6.77,9.24,7.86S196.59,36,196.59,36a3.3,3.3,0,0,1-.8,1.67c-1.49,2.24-1.09,7.63-1.09,7.63,0,6.09,1.2,6.78,1.61,7.64a7,7,0,0,1,.28,2.58c0,2.18-2.46,4.42-3.79,6a5.14,5.14,0,0,0-1.43,2.87v3.85" transform="translate(-7.55 0.35)" fill="none" stroke="#999999" stroke-linecap="round" stroke-linejoin="round" stroke-width="0.43"/><path d="M205.55,32.57s.46-3.79-.4-6a6.47,6.47,0,0,0-.92-1.72,5.24,5.24,0,0,0-4.36-2c-3.05-.11-8.85-.06-8.85-.06" transform="translate(-7.55 0.35)" fill="none" stroke="#999999" stroke-linecap="round" stroke-linejoin="round" stroke-width="0.43"/><path d="M204.23,24.88V21s.23-1.2-1.78-1.32-4.13-.17-4.13-.17a2.48,2.48,0,0,1-1.73.69c-1.09,0-4.42-.17-4.42-.17a12.2,12.2,0,0,1-.8,1.72,5.46,5.46,0,0,0-.69,1.44c-.06,3.44,3.44,7.23,5.34,8.44s9,3.44,9,3.44" transform="translate(-7.55 0.35)" fill="none" stroke="#999999" stroke-linecap="round" stroke-linejoin="round" stroke-width="0.43"/><path d="M185.17,19.94l7.12.18" transform="translate(-7.55 0.35)" fill="none" stroke="#999999" stroke-linecap="round" stroke-linejoin="round" stroke-width="0.43"/><path d="M203.2,54.56l-1.44-3.33a8.83,8.83,0,0,1-.8-3.61c0-2,.17-5.29.17-5.29s.11-2.18,1-2.92,2.46-1.9,2.46-1.9" transform="translate(-7.55 0.35)" fill="none" stroke="#999999" stroke-linecap="round" stroke-linejoin="round" stroke-width="0.43"/><path d="M200.38,68.23l.23-11a18.26,18.26,0,0,0-1.26-3.27A3.94,3.94,0,0,0,198,52.78s-1.09-2.06-1-7.86a35.67,35.67,0,0,1,.74-8,4.68,4.68,0,0,0,.35-2.76,9.92,9.92,0,0,0-1.78-2.29" transform="translate(-7.55 0.35)" fill="none" stroke="#999999" stroke-linecap="round" stroke-linejoin="round" stroke-width="0.43"/><path d="M143.43,57.78c3.45-.06,8.5-.29,12.4-.69,0,0,7.47-.23,11.89-.58,0,0,3.21-.17,4.42-.34,0,0,5.22,0,6.83-.69,0,0,4.76-.63,6.14-1.89" transform="translate(-7.55 0.35)" fill="none" stroke="#999999" stroke-linecap="round" stroke-linejoin="round" stroke-width="0.43"/><path d="M146.88,30a38.87,38.87,0,0,1,6.2-.34c9.24.28,16.42.74,16.42.74a6.87,6.87,0,0,1,4.82-.86,37,37,0,0,1,10.05,2.58c2.58,1.27,6.77,3.22,7.57,4.43a7.45,7.45,0,0,1,2,5.28c0,1.66,0,2.75.11,3.5v.46c0,.69-.06,1.89-.11,3.73a7.35,7.35,0,0,1-2,5.28c-.8,1.15-5,3.16-7.57,4.42a37,37,0,0,1-10.05,2.59,6.84,6.84,0,0,1-4.82-.87s-7.18.46-16.42.75a30.25,30.25,0,0,1-9.88-1.15" transform="translate(-7.55 0.35)" fill="none" stroke="#999999" stroke-linecap="round" stroke-linejoin="round" stroke-width="0.43"/><path d="M146.19,33.49c2.93.12,6.54.29,9.58.58,0,0,7.47.23,11.89.57,0,0,3.21.17,4.42.35,0,0,5.22,0,6.83.63,0,0,4.77.69,6.14,1.89" transform="translate(-7.55 0.35)" fill="none" stroke="#999999" stroke-linecap="round" stroke-linejoin="round" stroke-width="0.43"/><path d="M192,36.48a31.13,31.13,0,0,0-3.9-1.15c-.81-.06-2-.52-2.7,1.32a26.08,26.08,0,0,0-1.61,8.78v.69a25.58,25.58,0,0,0,1.61,8.44c.74,1.84,1.89,1.38,2.7,1.32a31.13,31.13,0,0,0,3.9-1.15" transform="translate(-7.55 0.35)" fill="none" stroke="#999999" stroke-linecap="round" stroke-linejoin="round" stroke-width="0.43"/><path d="M168,55.94V35.62" transform="translate(-7.55 0.35)" fill="none" stroke="#999999" stroke-linecap="round" stroke-linejoin="round" stroke-width="0.43"/><path d="M172.19,55V36" transform="translate(-7.55 0.35)" fill="none" stroke="#999999" stroke-linecap="round" stroke-linejoin="round" stroke-width="0.43"/><path d="M179,54.5V36.42" transform="translate(-7.55 0.35)" fill="none" stroke="#999999" stroke-linecap="round" stroke-linejoin="round" stroke-width="0.43"/><path d="M156,56.34l.12-21.47" transform="translate(-7.55 0.35)" fill="none" stroke="#999999" stroke-linecap="round" stroke-linejoin="round" stroke-width="0.43"/><path d="M136.66,68.11c0-11.31,1-23.42,1-23.42s1.61-10.57,2-12.92,1.38-5.57-4.24-6.89-26.41-6-26.41-6" transform="translate(-7.55 0.35)" fill="none" stroke="#999999" stroke-linecap="round" stroke-linejoin="round" stroke-width="0.43"/><path d="M124.77,63.86c0,1.9-2.12,2-2.12,2s-13.55-.23-13.55-3.1c0-3.21,13.38-3.44,13.38-3.44s2.35.23,2.35,2.06v2.47Z" transform="translate(-7.55 0.35)" fill="none" stroke="#999999" stroke-linecap="round" stroke-linejoin="round" stroke-width="0.43"/><path d="M123.17,60c1,0,1.66,1.2,1.66,2.64s-.63,2.64-1.66,2.64-1.84-1.21-1.84-2.64S122.19,60,123.17,60Z" transform="translate(-7.55 0.35)" fill="none" stroke="#999999" stroke-linecap="round" stroke-linejoin="round" stroke-width="0.43"/><path d="M125.58,30.56c-.12,1.78-2.18,1.78-2.18,1.78s-13-1.09-12.81-3.84c.23-3.1,13-2.47,13-2.47s2.24.34,2.13,2.18Z" transform="translate(-7.55 0.35)" fill="none" stroke="#999999" stroke-linecap="round" stroke-linejoin="round" stroke-width="0.43"/><path d="M124.26,26.72c1,.06,1.49,1.26,1.43,2.64s-.8,2.47-1.72,2.41-1.67-1.26-1.61-2.64S123.28,26.66,124.26,26.72Z" transform="translate(-7.55 0.35)" fill="none" stroke="#999999" stroke-linecap="round" stroke-linejoin="round" stroke-width="0.43"/><path d="M93.71,68.23c0-14.64,3.51-22.16,3.51-22.16s5-14,8.44-18.78c0,0,2.92-6.08,12.68-3.9s16.19,4,16.19,4a4.44,4.44,0,0,1,2.82,5.45,123.15,123.15,0,0,0-3.22,28.88" transform="translate(-7.55 0.35)" fill="none" stroke="#999999" stroke-linecap="round" stroke-linejoin="round" stroke-width="0.43"/><path d="M134,61.85l-2.7.18a1.67,1.67,0,0,0-1.49,1.37,18.8,18.8,0,0,0-.29,2.24s-3-.17-3.91.58a2,2,0,0,0-1,1.49v.57" transform="translate(-7.55 0.35)" fill="none" stroke="#999999" stroke-linecap="round" stroke-linejoin="round" stroke-width="0.43"/><path d="M130.63,62.31l-4.31-.92.4-35.76" transform="translate(-7.55 0.35)" fill="none" stroke="#999999" stroke-linecap="round" stroke-linejoin="round" stroke-width="0.43"/><path d="M93.83,62.89s20.38.23,20.38,5.34" transform="translate(-7.55 0.35)" fill="none" stroke="#999999" stroke-linecap="round" stroke-linejoin="round" stroke-width="0.43"/><path d="M96.87,68.23V63.92S110,64.21,110,68.23" transform="translate(-7.55 0.35)" fill="none" stroke="#999999" stroke-linecap="round" stroke-linejoin="round" stroke-width="0.43"/><path d="M98.94,62.43s1.2-17.46,6-29.17c0,0,1.14-2.29,2.41-2.06a107.85,107.85,0,0,0-6,31.4" transform="translate(-7.55 0.35)" fill="none" stroke="#999999" stroke-linecap="round" stroke-linejoin="round" stroke-width="0.43"/><path d="M156.58,68.23c0-1.09.17-2.7.17-2.7s.35-.75.86-.92a23.93,23.93,0,0,0,2.18-1.09" transform="translate(-7.55 0.35)" fill="none" stroke="#999999" stroke-linecap="round" stroke-linejoin="round" stroke-width="0.43"/><path d="M142.86,68.23s-.23-14.64,1.09-23.71,2.7-13.61,2.75-16.6-.51-4.7-1.49-4.88" transform="translate(-7.55 0.35)" fill="none" stroke="#999999" stroke-linecap="round" stroke-linejoin="round" stroke-width="0.43"/><path d="M142.91,62.94s9.65.18,15.51.06,14,0,14,0a9.57,9.57,0,0,1,2.7.52,32.44,32.44,0,0,1,3.45,1.15A2.58,2.58,0,0,1,180,66.79v1.44" transform="translate(-7.55 0.35)" fill="none" stroke="#999999" stroke-linecap="round" stroke-linejoin="round" stroke-width="0.43"/><path d="M143,64.09l13.55,1.55" transform="translate(-7.55 0.35)" fill="none" stroke="#999999" stroke-linecap="round" stroke-linejoin="round" stroke-width="0.43"/><path d="M151,68.11l.11-2.24" transform="translate(-7.55 0.35)" fill="none" stroke="#999999" stroke-linecap="round" stroke-linejoin="round" stroke-width="0.43"/><path d="M155.37,68.17l-.05-2.07" transform="translate(-7.55 0.35)" fill="none" stroke="#999999" stroke-linecap="round" stroke-linejoin="round" stroke-width="0.43"/><path d="M143,67.14h6.83v1.09" transform="translate(-7.55 0.35)" fill="none" stroke="#999999" stroke-linecap="round" stroke-linejoin="round" stroke-width="0.43"/><path d="M172.65,16.44s1.78-1.78,6.43-1.84,39.79-1.09,45.3-1c0,0,26.12-.81,41,4.3" transform="translate(-7.55 0.35)" fill="none" stroke="#999999" stroke-linecap="round" stroke-linejoin="round" stroke-width="0.43"/><path d="M291,40.67s-3.62-3.85-6-6" transform="translate(-7.55 0.35)" fill="none" stroke="#999999" stroke-linecap="round" stroke-linejoin="round" stroke-width="0.43"/><path d="M284.26,33.66a24.5,24.5,0,0,0-3.73-6.94,44.92,44.92,0,0,0-9.07-9.65,27.46,27.46,0,0,0-8.38-4.36,19.37,19.37,0,0,0-5.29-.8c-.86.05-.57.4.23.8s5.11,2.58,7.24,3.79A39.9,39.9,0,0,1,273,22.7c2.7,2.76,8.21,9.13,8.21,9.13l2.47,2.24c.06,0,1.15,1,.63-.41Z" transform="translate(-7.55 0.35)" fill="none" stroke="#999999" stroke-linecap="round" stroke-linejoin="round" stroke-width="0.43"/><path d="M261.41,12.25s-7.58-2.81-12.57-4.13" transform="translate(-7.55 0.35)" fill="none" stroke="#999999" stroke-linecap="round" stroke-linejoin="round" stroke-width="0.43"/><path d="M94.92,14.15c5.22.45,11.54,1.14,18,2" transform="translate(-7.55 0.35)" fill="none" stroke="#999999" stroke-linecap="round" stroke-linejoin="round" stroke-width="0.43"/><path d="M49.85,15.06s6.26-3.84,37.78-1.55" transform="translate(-7.55 0.35)" fill="none" stroke="#999999" stroke-linecap="round" stroke-linejoin="round" stroke-width="0.43"/><path d="M137-.09c-6.66-.63-11.94,5.74-13.38,7.69a5,5,0,0,0-1.26,3.22c-.06,2.18,2.7,2.81,2.7,2.81l2.93.06a26.44,26.44,0,0,0,4.65-1.38,3.38,3.38,0,0,0,1-1.44l4.2-10c-.06,0-.41-.92-.81-1Z" transform="translate(-7.55 0.35)" fill="none" stroke="#999999" stroke-linecap="round" stroke-linejoin="round" stroke-width="0.43"/><path d="M123.17,12.77s-.87.51-1,1-.29,1,.46,1.15a24.56,24.56,0,0,0,5,.12,4.51,4.51,0,0,0,2-1.61" transform="translate(-7.55 0.35)" fill="none" stroke="#999999" stroke-linecap="round" stroke-linejoin="round" stroke-width="0.43"/><path d="M23.16,68.17a6.1,6.1,0,0,0-.23-2H20.8s-1.84.34-1.84,2" transform="translate(-7.55 0.35)" fill="none" stroke="#999999" stroke-linecap="round" stroke-linejoin="round" stroke-width="0.43"/><path d="M171.05,10.24s8.84-4.76,16.47-.34" transform="translate(-7.55 0.35)" fill="none" stroke="#999999" stroke-linecap="round" stroke-linejoin="round" stroke-width="0.43"/><path d="M175,10.36a8.64,8.64,0,0,1,8.09-.18" transform="translate(-7.55 0.35)" fill="none" stroke="#999999" stroke-linecap="round" stroke-linejoin="round" stroke-width="0.43"/><path d="M133.9,126.27c5,.06,9.42.11,11.43.11,6,0,28.87-.46,33.47-.34s20.89,1,26.46,1.32,16.59,1.15,20.5,1.15,20.55-.12,22.68-.17a51.07,51.07,0,0,0,6.88-.69,40.84,40.84,0,0,0,5.06-1.61c1.09-.29,4.7-1.26,7.17-2.13s8-2.92,11.08-5.45,9.3-9.07,12.35-22.79c0,0,3.15-14.58,3.15-27.56" transform="translate(-7.55 0.35)" fill="none" stroke="#999999" stroke-linecap="round" stroke-linejoin="round" stroke-width="0.43"/><path d="M7.77,68.17c0,21.81,7,33.76,7,33.76s4.65,9.7,9.81,14.87,12.12,6.83,14.7,7.34c0,0,15.79,3.91,39,3.68,0,0,9.76-.17,13.15-.58s12.11-1.09,16.36-1.14c1.84-.06,7.81.05,14.58.11" transform="translate(-7.55 0.35)" fill="none" stroke="#999999" stroke-linecap="round" stroke-linejoin="round" stroke-width="0.43"/><path d="M15.64,68.11a55.67,55.67,0,0,0,2.52,17.22s1.95,6.38,3.91,8.73A19.69,19.69,0,0,0,29.7,98.6c5.11,1.78,23.14,8,31.12,9.93s17,4.13,22.27,5.17,13.78,2.81,21.47,1.83" transform="translate(-7.55 0.35)" fill="none" stroke="#999999" stroke-linecap="round" stroke-linejoin="round" stroke-width="0.43"/><path d="M24.53,102s-.51.64.23,2.53,3.45,7.86,6.43,11.14,5.11,5,8,5.68A44.07,44.07,0,0,0,47,122.71c2.36.11,2.58-.69,2.58-.69s.75-1-.91-3.44a34.31,34.31,0,0,0-10.74-10.34c-5.45-3.16-9.36-5.51-10.79-6.08S25.17,101.29,24.53,102Z" transform="translate(-7.55 0.35)" fill="none" stroke="#999999" stroke-linecap="round" stroke-linejoin="round" stroke-width="0.43"/><path d="M25.85,96.93a16.68,16.68,0,0,0,.64,4.82" transform="translate(-7.55 0.35)" fill="none" stroke="#999999" stroke-linecap="round" stroke-linejoin="round" stroke-width="0.43"/><path d="M37.74,121a1.3,1.3,0,0,0,.8,1.09c.81.29,8.9,3.45,11.89,3.91" transform="translate(-7.55 0.35)" fill="none" stroke="#999999" stroke-linecap="round" stroke-linejoin="round" stroke-width="0.43"/><path d="M139.24,68.05c0,11.37,1.15,25.21,1.15,25.21s1.32,8.9,1.66,11.08a44.17,44.17,0,0,1,.58,5.51c0,1,.51,3-1.95,3.5s-26.53,5.86-26.53,5.86C98.19,115.76,90.5,100,90.5,100s-7.12-12-7.12-32" transform="translate(-7.55 0.35)" fill="none" stroke="#999999" stroke-linecap="round" stroke-linejoin="round" stroke-width="0.43"/><path d="M114.9,119.38s8.95.52,34.67.52c0,0,23.26-1,33.53-1.5s22-.63,27.21-1,8.56-.75,11.43-2.41,7.46-4.82,8.78-11.37,2.41-18.43,2.41-35.42" transform="translate(-7.55 0.35)" fill="none" stroke="#999999" stroke-linecap="round" stroke-linejoin="round" stroke-width="0.43"/><path d="M226.91,110.82a17.46,17.46,0,0,0,12.4,1c7.23-2,26.81-7.75,40.87-15" transform="translate(-7.55 0.35)" fill="none" stroke="#999999" stroke-linecap="round" stroke-linejoin="round" stroke-width="0.43"/><path d="M283.8,68.17a81.4,81.4,0,0,1-1.49,16s-1.32,7.12-1.55,8.73-.81,4.59-.35,6.83,1,4.53,1,4.53" transform="translate(-7.55 0.35)" fill="none" stroke="#999999" stroke-linecap="round" stroke-linejoin="round" stroke-width="0.43"/><path d="M240.69,68.11V80.34s.05,3.56,3,3.56h1.66V68.11" transform="translate(-7.55 0.35)" fill="none" stroke="#999999" stroke-linecap="round" stroke-linejoin="round" stroke-width="0.43"/><path d="M245.39,83.9s17-.17,24.4-2.93" transform="translate(-7.55 0.35)" fill="none" stroke="#999999" stroke-linecap="round" stroke-linejoin="round" stroke-width="0.43"/><path d="M203.14,68.11c0,16.65.57,21.3.57,21.3s.75,8,1.78,14c0,0,.29,1.9,2.87,1.67l19.24-1.78" transform="translate(-7.55 0.35)" fill="none" stroke="#999999" stroke-linecap="round" stroke-linejoin="round" stroke-width="0.43"/><path d="M230.18,68.17s.17,12-.23,17.62-1.26,14.18-2.3,17.34" transform="translate(-7.55 0.35)" fill="none" stroke="#999999" stroke-linecap="round" stroke-linejoin="round" stroke-width="0.43"/><path d="M197.91,83.61s-.8-7.46-.8-15.5" transform="translate(-7.55 0.35)" fill="none" stroke="#999999" stroke-linecap="round" stroke-linejoin="round" stroke-width="0.43"/><path d="M185.11,111.17l-45.87,2.64" transform="translate(-7.55 0.35)" fill="none" stroke="#999999" stroke-linecap="round" stroke-linejoin="round" stroke-width="0.43"/><path d="M121.33,117.77l63.84-1.38a18.56,18.56,0,0,1,.11-2.47,10.72,10.72,0,0,1-.34-1.14c-.17-.63-.06-1.15,1.15-2.47s7.75-6.78,9.24-7.87,1.26-2.06,1.26-2.06a3.3,3.3,0,0,0-.8-1.67c-1.49-2.24-1.09-7.63-1.09-7.63,0-6.09,1.2-6.78,1.61-7.64a7,7,0,0,0,.28-2.58c0-2.19-2.46-4.42-3.79-6A5.17,5.17,0,0,1,191.37,72V68.11" transform="translate(-7.55 0.35)" fill="none" stroke="#999999" stroke-linecap="round" stroke-linejoin="round" stroke-width="0.43"/><path d="M205.55,103.76s.46,3.79-.4,6a6.69,6.69,0,0,1-.92,1.73,5.24,5.24,0,0,1-4.36,2c-3.05.11-8.85,0-8.85,0" transform="translate(-7.55 0.35)" fill="none" stroke="#999999" stroke-linecap="round" stroke-linejoin="round" stroke-width="0.43"/><path d="M204.23,111.46v3.84s.23,1.21-1.78,1.32-4.13.18-4.13.18a2.43,2.43,0,0,0-1.73-.69c-1.09,0-4.42.17-4.42.17a12.2,12.2,0,0,0-.8-1.72,5.61,5.61,0,0,1-.69-1.44c-.06-3.44,3.44-7.23,5.34-8.44s9-3.44,9-3.44" transform="translate(-7.55 0.35)" fill="none" stroke="#999999" stroke-linecap="round" stroke-linejoin="round" stroke-width="0.43"/><path d="M185.17,116.39l7.12-.17" transform="translate(-7.55 0.35)" fill="none" stroke="#999999" stroke-linecap="round" stroke-linejoin="round" stroke-width="0.43"/><path d="M203.2,81.77l-1.44,3.33a8.88,8.88,0,0,0-.8,3.62c0,2,.17,5.28.17,5.28s.11,2.19,1,2.93,2.46,1.9,2.46,1.9" transform="translate(-7.55 0.35)" fill="none" stroke="#999999" stroke-linecap="round" stroke-linejoin="round" stroke-width="0.43"/><path d="M200.38,68.11l.23,11a18.36,18.36,0,0,1-1.26,3.28A3.91,3.91,0,0,1,198,83.55s-1.09,2.07-1,7.87a35.67,35.67,0,0,0,.74,8,4.66,4.66,0,0,1,.35,2.76,9.92,9.92,0,0,1-1.78,2.29" transform="translate(-7.55 0.35)" fill="none" stroke="#999999" stroke-linecap="round" stroke-linejoin="round" stroke-width="0.43"/><path d="M143.43,78.56c3.45.06,8.5.29,12.4.69,0,0,7.47.23,11.89.57,0,0,3.21.18,4.42.35,0,0,5.22,0,6.83.69,0,0,4.76.69,6.14,1.89" transform="translate(-7.55 0.35)" fill="none" stroke="#999999" stroke-linecap="round" stroke-linejoin="round" stroke-width="0.43"/><path d="M146.88,106.35a40.08,40.08,0,0,0,6.2.34c9.24-.29,16.42-.75,16.42-.75a6.84,6.84,0,0,0,4.82.87,37,37,0,0,0,10.05-2.59c2.58-1.26,6.77-3.21,7.57-4.42a7.45,7.45,0,0,0,2-5.28c0-1.66,0-2.76.11-3.5v-.46c0-.69-.06-1.9-.11-3.73a7.33,7.33,0,0,0-2-5.28c-.8-1.15-5-3.16-7.57-4.43a37,37,0,0,0-10.05-2.58,6.87,6.87,0,0,0-4.82.86s-7.18-.46-16.42-.74a30.24,30.24,0,0,0-9.88,1.14" transform="translate(-7.55 0.35)" fill="none" stroke="#999999" stroke-linecap="round" stroke-linejoin="round" stroke-width="0.43"/><path d="M146.19,102.84c2.93-.11,6.54-.28,9.58-.57,0,0,7.47-.23,11.89-.57,0,0,3.21-.18,4.42-.35,0,0,5.22,0,6.83-.63,0,0,4.77-.69,6.14-1.89" transform="translate(-7.55 0.35)" fill="none" stroke="#999999" stroke-linecap="round" stroke-linejoin="round" stroke-width="0.43"/><path d="M192,99.86a31.13,31.13,0,0,1-3.9,1.15c-.81,0-2,.51-2.7-1.32a26.14,26.14,0,0,1-1.61-8.79v-.69a25.68,25.68,0,0,1,1.61-8.44c.74-1.83,1.89-1.37,2.7-1.32A32.91,32.91,0,0,1,192,81.6" transform="translate(-7.55 0.35)" fill="none" stroke="#999999" stroke-linecap="round" stroke-linejoin="round" stroke-width="0.43"/><path d="M168,80.4v20.32" transform="translate(-7.55 0.35)" fill="none" stroke="#999999" stroke-linecap="round" stroke-linejoin="round" stroke-width="0.43"/><path d="M172.19,81.32v19.06" transform="translate(-7.55 0.35)" fill="none" stroke="#999999" stroke-linecap="round" stroke-linejoin="round" stroke-width="0.43"/><path d="M179,81.83V99.92" transform="translate(-7.55 0.35)" fill="none" stroke="#999999" stroke-linecap="round" stroke-linejoin="round" stroke-width="0.43"/><path d="M156,80l.12,21.47" transform="translate(-7.55 0.35)" fill="none" stroke="#999999" stroke-linecap="round" stroke-linejoin="round" stroke-width="0.43"/><path d="M136.66,68.23c0,11.31,1,23.42,1,23.42s1.61,10.56,2,12.92,1.38,5.57-4.24,6.89-26.41,6-26.41,6" transform="translate(-7.55 0.35)" fill="none" stroke="#999999" stroke-linecap="round" stroke-linejoin="round" stroke-width="0.43"/><path d="M124.77,72.47c0-1.89-2.12-2-2.12-2s-13.55.22-13.55,3.1c0,3.21,13.38,3.44,13.38,3.44s2.35-.23,2.35-2.07V72.47Z" transform="translate(-7.55 0.35)" fill="none" stroke="#999999" stroke-linecap="round" stroke-linejoin="round" stroke-width="0.43"/><path d="M123.17,76.32c1,0,1.66-1.2,1.66-2.64S124.2,71,123.17,71s-1.84,1.2-1.84,2.64S122.19,76.32,123.17,76.32Z" transform="translate(-7.55 0.35)" fill="none" stroke="#999999" stroke-linecap="round" stroke-linejoin="round" stroke-width="0.43"/><path d="M125.58,105.77c-.12-1.78-2.18-1.78-2.18-1.78s-13,1.09-12.81,3.85c.23,3.1,13,2.41,13,2.41s2.24-.34,2.13-2.18Z" transform="translate(-7.55 0.35)" fill="none" stroke="#999999" stroke-linecap="round" stroke-linejoin="round" stroke-width="0.43"/><path d="M124.26,109.56c1-.06,1.49-1.26,1.43-2.64s-.8-2.47-1.72-2.41-1.67,1.26-1.61,2.64S123.28,109.68,124.26,109.56Z" transform="translate(-7.55 0.35)" fill="none" stroke="#999999" stroke-linecap="round" stroke-linejoin="round" stroke-width="0.43"/><path d="M93.71,68.11c0,14.64,3.51,22.16,3.51,22.16s5,14,8.44,18.78c0,0,2.92,6.08,12.68,3.9s16.19-4,16.19-4a4.44,4.44,0,0,0,2.82-5.46,123.06,123.06,0,0,1-3.22-28.87" transform="translate(-7.55 0.35)" fill="none" stroke="#999999" stroke-linecap="round" stroke-linejoin="round" stroke-width="0.43"/><path d="M134,74.48l-2.7-.17a1.67,1.67,0,0,1-1.49-1.38,18.54,18.54,0,0,1-.29-2.24s-3,.18-3.91-.57a2,2,0,0,1-1-1.49v-.58" transform="translate(-7.55 0.35)" fill="none" stroke="#999999" stroke-linecap="round" stroke-linejoin="round" stroke-width="0.43"/><path d="M130.63,74l-4.31.92.4,35.77" transform="translate(-7.55 0.35)" fill="none" stroke="#999999" stroke-linecap="round" stroke-linejoin="round" stroke-width="0.43"/><path d="M93.83,73.45s20.38-.23,20.38-5.34" transform="translate(-7.55 0.35)" fill="none" stroke="#999999" stroke-linecap="round" stroke-linejoin="round" stroke-width="0.43"/><path d="M96.87,68.11v4.36S110,72.19,110,68.17" transform="translate(-7.55 0.35)" fill="none" stroke="#999999" stroke-linecap="round" stroke-linejoin="round" stroke-width="0.43"/><path d="M98.94,73.91s1.2,17.45,6,29.16c0,0,1.14,2.3,2.41,2.07a107.85,107.85,0,0,1-6-31.4" transform="translate(-7.55 0.35)" fill="none" stroke="#999999" stroke-linecap="round" stroke-linejoin="round" stroke-width="0.43"/><path d="M156.58,68.11c0,1.09.17,2.7.17,2.7s.35.75.86.92a23.93,23.93,0,0,1,2.18,1.09" transform="translate(-7.55 0.35)" fill="none" stroke="#999999" stroke-linecap="round" stroke-linejoin="round" stroke-width="0.43"/><path d="M142.86,68.11s-.23,14.64,1.09,23.71,2.7,13.61,2.75,16.59-.51,4.71-1.49,4.88" transform="translate(-7.55 0.35)" fill="none" stroke="#999999" stroke-linecap="round" stroke-linejoin="round" stroke-width="0.43"/><path d="M142.91,73.39s9.65-.17,15.51,0,14,0,14,0a9.93,9.93,0,0,0,2.7-.52,32.44,32.44,0,0,0,3.45-1.15A2.58,2.58,0,0,0,180,69.55V68.11" transform="translate(-7.55 0.35)" fill="none" stroke="#999999" stroke-linecap="round" stroke-linejoin="round" stroke-width="0.43"/><path d="M143,72.24l13.55-1.55" transform="translate(-7.55 0.35)" fill="none" stroke="#999999" stroke-linecap="round" stroke-linejoin="round" stroke-width="0.43"/><path d="M151,68.23l.11,2.24" transform="translate(-7.55 0.35)" fill="none" stroke="#999999" stroke-linecap="round" stroke-linejoin="round" stroke-width="0.43"/><path d="M155.37,68.17l-.05,2.07" transform="translate(-7.55 0.35)" fill="none" stroke="#999999" stroke-linecap="round" stroke-linejoin="round" stroke-width="0.43"/><path d="M143,69.2h6.83V68.11" transform="translate(-7.55 0.35)" fill="none" stroke="#999999" stroke-linecap="round" stroke-linejoin="round" stroke-width="0.43"/><path d="M172.65,119.9s1.78,1.78,6.43,1.83,39.79,1.09,45.3,1c0,0,26.12.8,41-4.31" transform="translate(-7.55 0.35)" fill="none" stroke="#999999" stroke-linecap="round" stroke-linejoin="round" stroke-width="0.43"/><path d="M291,95.67s-3.62,3.84-6,6" transform="translate(-7.55 0.35)" fill="none" stroke="#999999" stroke-linecap="round" stroke-linejoin="round" stroke-width="0.43"/><path d="M284.26,102.67a24.42,24.42,0,0,1-3.73,7,45.1,45.1,0,0,1-9.07,9.64,27.49,27.49,0,0,1-8.38,4.37,19.37,19.37,0,0,1-5.29.8c-.86-.06-.57-.4.23-.8s5.11-2.59,7.24-3.79a40.67,40.67,0,0,0,7.69-6.2c2.7-2.76,8.21-9.13,8.21-9.13l2.47-2.24c.06,0,1.15-1,.63.4Z" transform="translate(-7.55 0.35)" fill="none" stroke="#999999" stroke-linecap="round" stroke-linejoin="round" stroke-width="0.43"/><path d="M261.41,124.09s-7.58,2.81-12.57,4.13" transform="translate(-7.55 0.35)" fill="none" stroke="#999999" stroke-linecap="round" stroke-linejoin="round" stroke-width="0.43"/><path d="M49.85,121.27S59,126.9,113,120.13" transform="translate(-7.55 0.35)" fill="none" stroke="#999999" stroke-linecap="round" stroke-linejoin="round" stroke-width="0.43"/><path d="M137,136.43c-6.66.63-11.94-5.74-13.38-7.69s-1.26-3.22-1.26-3.22c-.06-2.18,2.7-2.81,2.7-2.81l2.93-.06s4,.86,4.65,1.38a3.41,3.41,0,0,1,1,1.43l4.14,10S137.4,136.37,137,136.43Z" transform="translate(-7.55 0.35)" fill="none" stroke="#999999" stroke-linecap="round" stroke-linejoin="round" stroke-width="0.43"/><path d="M123.17,123.57s-.87-.52-1-1-.29-1,.46-1.14a24.56,24.56,0,0,1,5-.12,4.51,4.51,0,0,1,2,1.61" transform="translate(-7.55 0.35)" fill="none" stroke="#999999" stroke-linecap="round" stroke-linejoin="round" stroke-width="0.43"/><path d="M23.16,68.17a6.1,6.1,0,0,1-.23,2H20.8s-1.84-.34-1.84-2" transform="translate(-7.55 0.35)" fill="none" stroke="#999999" stroke-linecap="round" stroke-linejoin="round" stroke-width="0.43"/><path d="M171.05,126.1s8.84,4.76,16.47.34" transform="translate(-7.55 0.35)" fill="none" stroke="#999999" stroke-linecap="round" stroke-linejoin="round" stroke-width="0.43"/><path d="M175,126a8.65,8.65,0,0,0,8.09.17" transform="translate(-7.55 0.35)" fill="none" stroke="#999999" stroke-linecap="round" stroke-linejoin="round" stroke-width="0.43"/><path d="M114.21,17l-9-6.72" transform="translate(-7.55 0.35)" fill="none" stroke="#999999" stroke-linecap="round" stroke-linejoin="round" stroke-width="0.43"/><path d="M104.91,126.15l9.24-6.71" transform="translate(-7.55 0.35)" fill="none" stroke="#999999" stroke-linecap="round" stroke-linejoin="round" stroke-width="0.43"/><path d="M188.79,18.11s4.24-5.69,2.35-8.27" transform="translate(-7.55 0.35)" fill="none" stroke="#999999" stroke-linecap="round" stroke-linejoin="round" stroke-width="0.43"/><path d="M188.56,118.29s4.42,5.91,2.18,8.32" transform="translate(-7.55 0.35)" fill="none" stroke="#999999" stroke-linecap="round" stroke-linejoin="round" stroke-width="0.43"/><path d="M281.16,100.26a44.29,44.29,0,0,0,5.34-4,11.76,11.76,0,0,0,2.75-5.57,86,86,0,0,0,2.53-22.27" transform="translate(-7.55 0.35)" fill="none" stroke="#999999" stroke-linecap="round" stroke-linejoin="round" stroke-width="0.43"/><path d="M217,118.06s39.73-4.54,63-17" transform="translate(-7.55 0.35)" fill="none" stroke="#999999" stroke-linecap="round" stroke-linejoin="round" stroke-width="0.43"/><path d="M281.16,36.48a44.29,44.29,0,0,1,5.34,4,11.76,11.76,0,0,1,2.75,5.57,85.91,85.91,0,0,1,2.53,22.27" transform="translate(-7.55 0.35)" fill="none" stroke="#999999" stroke-linecap="round" stroke-linejoin="round" stroke-width="0.43"/><path d="M217,18.68s39.73,4.54,63,17" transform="translate(-7.55 0.35)" fill="none" stroke="#999999" stroke-linecap="round" stroke-linejoin="round" stroke-width="0.43"/><path d="M106.69,90.73c0,11.6,15.5,12.34,15.5,12.34s2.81-.34,3.79-1.2" transform="translate(-7.55 0.35)" fill="none" stroke="#999999" stroke-linecap="round" stroke-linejoin="round" stroke-width="0.43"/><path d="M106.69,90.73c0-11.6,15.5-12.34,15.5-12.34s2.81.34,3.79,1.2" transform="translate(-7.55 0.35)" fill="none" stroke="#999999" stroke-linecap="round" stroke-linejoin="round" stroke-width="0.43"/><path d="M120.18,102.9s-4.94-12-.57-23.94" transform="translate(-7.55 0.35)" fill="none" stroke="#999999" stroke-linecap="round" stroke-linejoin="round" stroke-width="0.43"/><path d="M121.27,103S126,99.86,126,90.85s-4.83-12.23-4.83-12.23" transform="translate(-7.55 0.35)" fill="none" stroke="#999999" stroke-linecap="round" stroke-linejoin="round" stroke-width="0.43"/><path d="M126.55,95.55l4.94-.51" transform="translate(-7.55 0.35)" fill="none" stroke="red" stroke-linecap="round" stroke-linejoin="round" stroke-width="0.43"/><path d="M137.17,103.07s-4,.29-4-13" transform="translate(-7.55 0.35)" fill="none" stroke="#999999" stroke-linecap="round" stroke-linejoin="round" stroke-width="0.43"/><path d="M126.61,85.45l4.88.52" transform="translate(-7.55 0.35)" fill="none" stroke="#999999" stroke-linecap="round" stroke-linejoin="round" stroke-width="0.43"/><path d="M133.5,85.51l-2.53.63s-1.09.51-1.09,4v.69c0,3.5,1.09,4,1.09,4l2.53.64" transform="translate(-7.55 0.35)" fill="none" stroke="#999999" stroke-linecap="round" stroke-linejoin="round" stroke-width="0.43"/><path d="M134.3,81.66a33.19,33.19,0,0,0-1,9.24" transform="translate(-7.55 0.35)" fill="none" stroke="#999999" stroke-linecap="round" stroke-linejoin="round" stroke-width="0.43"/></svg>